<svg xmlns="http://www.w3.org/2000/svg" xmlns:xlink="http://www.w3.org/1999/xlink" width="500" zoomAndPan="magnify" viewBox="0 0 375 374.999991" height="500" preserveAspectRatio="xMidYMid meet" version="1.0"><defs><filter x="0%" y="0%" width="100%" height="100%" id="id1"><feColorMatrix values="0 0 0 0 1 0 0 0 0 1 0 0 0 0 1 0 0 0 1 0" color-interpolation-filters="sRGB"/></filter><g/><mask id="id2"><g filter="url(#id1)"><rect x="-37.5" width="450" fill="#000000" y="-37.499999" height="449.999989" fill-opacity="0.5765"/></g></mask><clipPath id="id3"><path d="M 1 0.875 L 279.640625 0.875 L 279.640625 278 L 1 278 Z M 1 0.875 " clip-rule="nonzero"/></clipPath><clipPath id="id4"><path d="M 128.699219 277.203125 C 119.960938 276.214844 109.671875 274.1875 109.15625 273.355469 C 108.84375 272.847656 110.265625 272.109375 112.316406 271.710938 C 117.21875 270.757812 117.304688 270.757812 124.800781 271.675781 C 129.066406 272.199219 131.523438 272.035156 132.042969 271.199219 C 132.59375 270.304688 134.171875 270.46875 137.386719 271.757812 C 141.476562 273.398438 144.675781 273.476562 149.980469 272.0625 C 150.988281 271.792969 151.566406 272.257812 151.371094 273.183594 C 151.136719 274.292969 151.648438 274.507812 153.097656 273.894531 C 154.230469 273.414062 156.710938 273.105469 158.609375 273.207031 L 162.058594 273.394531 L 159.289062 271.4375 L 156.515625 269.484375 L 159.148438 268.507812 C 160.828125 267.882812 162.363281 268.011719 163.386719 268.863281 C 165.445312 270.574219 179.597656 269.355469 185.28125 266.976562 C 187.535156 266.03125 190.996094 265.242188 192.972656 265.21875 C 194.953125 265.199219 197.867188 264.4375 199.449219 263.53125 C 202.644531 261.699219 205.199219 261.332031 205.199219 262.699219 C 205.199219 263.738281 193.921875 268.773438 183.917969 272.199219 C 170.332031 276.851562 145.480469 279.101562 128.699219 277.203125 Z M 159.425781 258.707031 C 155.292969 257.003906 152.984375 252.890625 154.855469 250.566406 C 155.671875 249.546875 155.550781 249.117188 154.433594 249.105469 C 153.324219 249.09375 153.25 248.835938 154.179688 248.242188 C 154.910156 247.777344 155.859375 244.800781 156.285156 241.632812 C 156.714844 238.460938 157.742188 233.535156 158.570312 230.683594 C 159.394531 227.828125 160.0625 224.457031 160.054688 223.191406 C 160.035156 220.746094 161.042969 213.058594 162.21875 206.671875 C 163.160156 201.554688 160.890625 197.585938 155.425781 194.792969 C 153 193.554688 150.738281 191.65625 150.394531 190.574219 C 148.683594 185.207031 144.703125 177.167969 141.535156 172.679688 C 138.441406 168.292969 140.554688 158.925781 145.667969 154.351562 C 148.753906 151.589844 149.28125 150.382812 148.972656 146.785156 C 148.769531 144.429688 148.1875 142.246094 147.675781 141.929688 C 147.167969 141.613281 146.699219 140.835938 146.640625 140.199219 C 146.578125 139.566406 145.882812 139.046875 145.089844 139.046875 C 144.300781 139.046875 143.777344 139.683594 143.929688 140.457031 C 144.289062 142.285156 137.394531 141.007812 135.234375 138.847656 C 134.398438 138.007812 133.230469 137.320312 132.640625 137.320312 C 132.054688 137.320312 131.574219 136.632812 131.574219 135.789062 C 131.574219 133.320312 126.714844 129.566406 122.371094 128.675781 C 120.15625 128.21875 117.210938 126.804688 115.824219 125.53125 C 114.132812 123.976562 111.378906 123.105469 107.46875 122.894531 C 101.472656 122.570312 95.308594 119.632812 96.515625 117.671875 C 96.890625 117.066406 95.648438 116.570312 93.746094 116.570312 C 89.4375 116.570312 88.105469 114.640625 90.90625 112.445312 C 92.078125 111.527344 92.472656 110.910156 91.78125 111.078125 C 90.738281 111.332031 86.316406 106.835938 83.019531 102.164062 C 82.574219 101.53125 80.632812 99.195312 78.710938 96.976562 L 75.214844 92.941406 L 77.019531 96.6875 C 78.011719 98.75 79.285156 100.433594 79.851562 100.433594 C 80.417969 100.433594 80.605469 101.160156 80.265625 102.046875 C 79.925781 102.933594 80.203125 104 80.878906 104.421875 C 81.554688 104.839844 82.105469 106.007812 82.105469 107.019531 C 82.105469 108.621094 81.808594 108.589844 79.804688 106.773438 C 78.539062 105.625 77.503906 103.972656 77.503906 103.101562 C 77.503906 102.230469 76.710938 101.210938 75.746094 100.839844 C 74.667969 100.425781 74.242188 99.355469 74.640625 98.089844 C 75.003906 96.949219 74.757812 95.683594 74.101562 95.277344 C 73.441406 94.867188 72.902344 93.605469 72.902344 92.464844 C 72.902344 91.328125 71.65625 89.050781 70.132812 87.402344 C 65.902344 82.832031 64.738281 75.449219 67.265625 69.210938 C 69.582031 63.484375 70.03125 58.941406 68.28125 58.941406 C 67.617188 58.941406 67.40625 57.738281 67.796875 56.183594 C 68.175781 54.667969 67.929688 53.082031 67.242188 52.660156 C 66.554688 52.230469 66 52.691406 66 53.683594 C 66 54.671875 65.464844 55.480469 64.804688 55.480469 C 64.148438 55.480469 63.710938 54.316406 63.835938 52.886719 C 64.257812 47.96875 63.691406 46.261719 61.640625 46.261719 C 59.03125 46.261719 50.914062 50.371094 49.726562 52.292969 C 49.234375 53.097656 48.421875 53.757812 47.921875 53.765625 C 47.425781 53.773438 44.625 55.441406 41.699219 57.46875 C 38.777344 59.496094 36.078125 60.851562 35.707031 60.476562 C 35.335938 60.105469 36.691406 58.679688 38.714844 57.3125 C 40.742188 55.945312 42.578125 53.804688 42.792969 52.558594 C 43.011719 51.3125 45.085938 48.609375 47.402344 46.550781 C 49.722656 44.492188 50.644531 43.148438 49.449219 43.566406 C 46.144531 44.71875 47.707031 41.382812 51.292969 39.628906 C 52.917969 38.835938 54.558594 37.019531 54.9375 35.597656 C 55.847656 32.171875 63.792969 26.675781 67.910156 26.625 C 69.707031 26.605469 74.285156 25.925781 78.078125 25.117188 C 81.875 24.308594 86.890625 23.777344 89.21875 23.933594 C 92.703125 24.167969 93.429688 23.847656 93.296875 22.121094 C 93.171875 20.421875 92.761719 20.261719 91.125 21.285156 C 90.019531 21.976562 88.757812 22.1875 88.320312 21.753906 C 87.222656 20.648438 90.070312 17.445312 92.148438 17.445312 C 93.148438 17.445312 93.597656 16.769531 93.230469 15.8125 C 92.816406 14.734375 94.050781 13.539062 96.84375 12.304688 C 99.179688 11.277344 100.050781 10.671875 98.785156 10.960938 C 95.75 11.652344 88.941406 14.042969 86.433594 15.292969 C 85.335938 15.84375 83.394531 16.292969 82.121094 16.292969 C 80.847656 16.292969 79.804688 16.75 79.804688 17.308594 C 79.804688 18.308594 71.605469 21.609375 66 22.859375 C 63.507812 23.414062 63.664062 23.128906 67.152344 20.730469 C 79.609375 12.148438 90.679688 7.425781 107.75 3.410156 C 116.5 1.351562 121.949219 0.914062 139.050781 0.882812 C 159.6875 0.847656 175.167969 2.703125 171.773438 4.808594 C 170.917969 5.335938 169.789062 5.5 169.257812 5.171875 C 168.730469 4.84375 162.917969 4.417969 156.347656 4.226562 C 146.320312 3.9375 144.503906 4.148438 145.039062 5.542969 C 145.390625 6.457031 146.324219 6.953125 147.117188 6.648438 C 149.09375 5.890625 158.382812 10.746094 164.394531 15.683594 C 167.121094 17.917969 169.785156 19.75 170.316406 19.75 C 170.847656 19.75 171.957031 20.828125 172.777344 22.144531 C 174.085938 24.242188 173.992188 24.617188 172.019531 25.132812 C 169.054688 25.910156 168.25 30.59375 170.144531 35.984375 C 170.980469 38.351562 171.414062 40.539062 171.105469 40.847656 C 170.054688 41.902344 163.257812 37.757812 158.824219 33.359375 C 156.382812 30.9375 153.832031 29.300781 153.15625 29.71875 C 152.476562 30.140625 152.257812 29.941406 152.667969 29.28125 C 153.074219 28.621094 152.613281 27.417969 151.640625 26.613281 C 150.671875 25.804688 150.140625 24.449219 150.46875 23.601562 C 150.800781 22.734375 150.304688 22.054688 149.332031 22.054688 C 148.382812 22.054688 147.308594 21.277344 146.945312 20.328125 C 146.582031 19.375 145.730469 18.597656 145.058594 18.597656 C 144.386719 18.597656 142.996094 17.835938 141.96875 16.90625 C 140.59375 15.65625 139.207031 15.480469 136.699219 16.230469 C 134.832031 16.789062 133.988281 17.292969 134.828125 17.347656 C 137.308594 17.507812 145.542969 26.539062 145.1875 28.707031 C 145.007812 29.804688 145.203125 31.246094 145.621094 31.910156 C 146.035156 32.574219 145.910156 33.871094 145.335938 34.789062 C 144.449219 36.210938 143.554688 36.074219 139.371094 33.867188 C 136.664062 32.4375 133.574219 31.273438 132.503906 31.273438 C 129.898438 31.277344 128.691406 29.125 130.835938 28.296875 C 131.777344 27.9375 132.84375 26.871094 133.203125 25.925781 C 133.695312 24.636719 133.289062 24.394531 131.566406 24.941406 C 129.878906 25.476562 129.273438 25.144531 129.273438 23.671875 C 129.273438 22.570312 128.933594 22.011719 128.515625 22.429688 C 128.101562 22.847656 127.195312 22.71875 126.503906 22.144531 C 125.636719 21.421875 125.25 22.347656 125.261719 25.125 C 125.269531 27.757812 125.976562 29.542969 127.296875 30.285156 C 128.410156 30.910156 129.078125 31.8125 128.78125 32.292969 C 128.488281 32.773438 129.640625 32.960938 131.347656 32.714844 C 133.441406 32.410156 136.136719 33.402344 139.625 35.765625 C 143.617188 38.464844 144.890625 38.882812 145.175781 37.578125 C 145.742188 35 146.820312 35.484375 151.71875 40.511719 C 154.199219 43.054688 156.730469 44.96875 157.34375 44.761719 C 158.644531 44.328125 161.644531 47.136719 164.414062 51.371094 C 166.355469 54.335938 169.167969 55.597656 167.792969 52.890625 C 167.390625 52.097656 168.136719 52.671875 169.449219 54.167969 C 170.761719 55.664062 171.828125 57.742188 171.820312 58.78125 C 171.804688 60.421875 171.65625 60.441406 170.6875 58.941406 C 169.695312 57.402344 169.558594 57.402344 169.464844 58.941406 C 169.390625 60.125 169.171875 60.21875 168.773438 59.226562 C 167.847656 56.925781 162.863281 57.425781 163.050781 59.804688 C 163.152344 61.082031 162.261719 61.957031 160.621094 62.191406 C 159.199219 62.390625 158.03125 63.109375 158.03125 63.78125 C 158.03125 64.546875 156.300781 64.773438 153.429688 64.386719 C 149.675781 63.882812 148.824219 64.121094 148.804688 65.675781 C 148.789062 66.726562 147.765625 68.882812 146.527344 70.464844 C 145.292969 72.050781 144.269531 74.058594 144.253906 74.929688 C 144.230469 76.269531 143.925781 76.269531 142.234375 74.929688 C 140.386719 73.460938 140.390625 73.578125 142.28125 76.550781 C 144.53125 80.078125 144.144531 81.242188 139.390625 85.25 C 136.144531 87.988281 135.085938 92.707031 137.398438 94.140625 C 139.085938 95.1875 140.941406 100.386719 140.109375 101.742188 C 139.109375 103.359375 136.085938 100.496094 134.320312 96.265625 C 133.230469 93.652344 131.828125 92.476562 129.179688 91.945312 C 123.527344 90.8125 121.21875 91.070312 121.21875 92.835938 C 121.21875 93.878906 120.414062 94.246094 118.964844 93.863281 C 116.359375 93.183594 109.363281 97.175781 106.839844 100.785156 C 104.625 103.957031 104.652344 107.753906 106.929688 112.5625 C 109.046875 117.035156 110.761719 117.917969 115.496094 116.96875 C 117.863281 116.496094 119.164062 115.417969 119.632812 113.542969 C 120.011719 112.039062 120.910156 110.769531 121.632812 110.71875 C 122.355469 110.671875 123.847656 110.460938 124.953125 110.246094 C 127.957031 109.671875 128.4375 111.46875 126.359375 115.492188 C 125.335938 117.472656 124.792969 119.382812 125.152344 119.742188 C 125.507812 120.101562 125.207031 121.113281 124.480469 121.988281 C 123.386719 123.308594 123.90625 123.5 127.503906 123.101562 C 134.628906 122.316406 136.035156 123.136719 135.96875 128.039062 C 135.855469 136.308594 138.535156 139.753906 143.160156 137.273438 C 144.6875 136.457031 146.074219 136.457031 147.605469 137.277344 C 150.5625 138.867188 150.699219 138.835938 153.214844 136.132812 C 154.410156 134.847656 156.371094 133.59375 157.574219 133.351562 C 158.777344 133.105469 160.75 132.515625 161.960938 132.035156 C 163.503906 131.425781 163.914062 131.566406 163.332031 132.511719 C 162.875 133.253906 163.046875 133.863281 163.71875 133.863281 C 164.386719 133.863281 164.933594 133.375 164.933594 132.777344 C 164.933594 132.179688 166.320312 132.414062 168.015625 133.292969 C 169.710938 134.175781 171.601562 134.582031 172.222656 134.199219 C 172.839844 133.816406 173.011719 134.046875 172.605469 134.703125 C 172.195312 135.363281 173.023438 136.214844 174.4375 136.597656 C 178.058594 137.570312 178.976562 137.484375 178.214844 136.246094 C 177.851562 135.65625 178.160156 134.796875 178.898438 134.339844 C 179.742188 133.820312 179.9375 134.003906 179.425781 134.835938 C 178.664062 136.074219 180.265625 136.621094 184.203125 136.476562 C 184.996094 136.445312 185.652344 137.273438 185.664062 138.3125 C 185.691406 140.957031 193.53125 147.164062 197.949219 148.035156 C 202.398438 148.917969 206.351562 152.09375 206.351562 154.796875 C 206.351562 155.886719 206.902344 157.121094 207.574219 157.535156 C 208.378906 158.03125 208.089844 159.152344 206.742188 160.773438 C 205.613281 162.136719 205.417969 162.609375 206.308594 161.824219 C 207.628906 160.667969 209.3125 161.15625 215.234375 164.417969 C 219.25 166.632812 223.472656 168.441406 224.617188 168.441406 C 225.761719 168.441406 227.605469 169.441406 228.710938 170.667969 C 229.820312 171.894531 231.453125 172.617188 232.34375 172.273438 C 233.511719 171.824219 233.960938 172.617188 233.960938 175.140625 C 233.960938 177.597656 232.449219 180.398438 228.839844 184.632812 C 226.027344 187.9375 223.371094 192.261719 222.945312 194.238281 C 221.761719 199.691406 216.601562 206.273438 212.390625 207.695312 C 210.332031 208.390625 208.648438 209.6875 208.648438 210.574219 C 208.648438 211.460938 207.226562 213.105469 205.488281 214.226562 C 203.746094 215.347656 201.390625 217.417969 200.25 218.835938 C 194.597656 225.835938 188.445312 230.746094 185.882812 230.296875 C 183.894531 229.945312 183.328125 230.316406 183.582031 231.808594 C 183.941406 233.929688 181.460938 237.597656 179.671875 237.597656 C 179.074219 237.597656 175.773438 240.03125 172.335938 243.003906 C 168.183594 246.597656 166.546875 248.699219 167.460938 249.265625 C 168.425781 249.863281 168 250.828125 166.023438 252.5 C 163.382812 254.738281 163.335938 254.984375 165.222656 256.453125 C 166.328125 257.316406 167.234375 258.292969 167.234375 258.625 C 167.234375 260.089844 162.890625 260.132812 159.425781 258.707031 Z M 154.796875 60.457031 C 153.96875 60.125 152.976562 60.164062 152.59375 60.550781 C 152.210938 60.933594 152.890625 61.203125 154.101562 61.152344 C 155.441406 61.097656 155.714844 60.824219 154.796875 60.457031 Z M 162.59375 55.230469 C 162.617188 54.773438 161.859375 54.699219 160.910156 55.066406 C 159.902344 55.453125 159.175781 55.078125 159.164062 54.164062 C 159.152344 52.890625 158.957031 52.902344 158.121094 54.222656 C 157.5 55.207031 157.59375 56.933594 158.355469 58.609375 L 159.609375 61.371094 L 161.082031 58.714844 C 161.890625 57.253906 162.570312 55.6875 162.59375 55.230469 Z M 125.820312 58.472656 C 125.820312 58.242188 124.636719 57.277344 123.191406 56.328125 C 120.832031 54.777344 120.316406 54.796875 118.1875 56.527344 C 115.878906 58.402344 115.949219 58.460938 120.816406 58.671875 C 123.570312 58.792969 125.820312 58.703125 125.820312 58.472656 Z M 123.054688 52.539062 C 120.96875 51.007812 120.960938 50.898438 122.945312 50.136719 C 124.089844 49.695312 126.964844 49.855469 129.339844 50.492188 C 133.003906 51.472656 133.558594 51.382812 132.996094 49.917969 C 132.566406 48.796875 132.804688 48.480469 133.671875 49.015625 C 134.40625 49.472656 135.917969 49.3125 137.03125 48.664062 C 138.867188 47.59375 138.828125 47.480469 136.605469 47.449219 C 134.734375 47.421875 134.164062 46.695312 134.164062 44.332031 C 134.164062 42.640625 133.191406 40.542969 132.003906 39.671875 C 130.820312 38.804688 129.976562 37.855469 130.136719 37.566406 C 130.933594 36.109375 130.234375 34.734375 128.699219 34.734375 C 127.75 34.734375 126.972656 34.171875 126.972656 33.484375 C 126.972656 32.800781 126.324219 32.46875 125.535156 32.753906 C 124.742188 33.039062 123.179688 32.796875 122.054688 32.21875 C 120.472656 31.402344 119.355469 31.953125 117.0625 34.683594 C 115.4375 36.617188 113.691406 37.941406 113.183594 37.625 C 112.675781 37.3125 111.964844 37.820312 111.605469 38.761719 C 111.242188 39.703125 111.320312 40.355469 111.769531 40.214844 C 112.222656 40.074219 114.039062 41.421875 115.808594 43.214844 C 117.820312 45.25 119.710938 46.203125 120.859375 45.761719 C 123.230469 44.851562 127.203125 46.105469 126.347656 47.496094 C 125.984375 48.085938 124.910156 48.566406 123.960938 48.566406 C 122.949219 48.566406 122.574219 48.015625 123.054688 47.234375 C 123.570312 46.40625 123.371094 46.21875 122.53125 46.738281 C 121.789062 47.199219 121.480469 48.054688 121.84375 48.644531 C 122.207031 49.234375 121.957031 49.71875 121.289062 49.71875 C 120.617188 49.71875 120.070312 49.199219 120.070312 48.566406 C 120.070312 46.539062 115.757812 47.335938 115.203125 49.464844 C 114.570312 51.886719 117.25 54.953125 118.386719 53.109375 C 118.894531 52.28125 119.570312 52.28125 120.566406 53.109375 C 121.359375 53.769531 122.347656 53.96875 122.765625 53.550781 C 123.179688 53.132812 123.519531 53.484375 123.519531 54.328125 C 123.519531 55.175781 123.910156 55.476562 124.382812 55.003906 C 124.855469 54.53125 124.257812 53.417969 123.054688 52.539062 Z M 131.574219 46.328125 C 131.574219 45.734375 132.085938 44.925781 132.710938 44.539062 C 133.363281 44.136719 133.554688 44.597656 133.164062 45.625 C 132.398438 47.621094 131.574219 47.988281 131.574219 46.328125 Z M 117.125 43.417969 C 115.898438 42.484375 115.496094 41.707031 116.238281 41.6875 C 118.421875 41.628906 121.21875 42.96875 121.21875 44.078125 C 121.21875 45.589844 119.660156 45.335938 117.125 43.417969 Z M 155.730469 54.660156 C 155.730469 54.523438 154.75 53.882812 153.550781 53.242188 C 152 52.410156 151.035156 52.480469 150.199219 53.488281 C 149.316406 54.554688 149.855469 54.90625 152.378906 54.90625 C 154.222656 54.90625 155.730469 54.792969 155.730469 54.660156 Z M 138.476562 52.023438 C 138.476562 51.390625 137.667969 50.871094 136.683594 50.871094 C 135.695312 50.871094 135.210938 51.390625 135.601562 52.023438 C 135.992188 52.660156 136.796875 53.175781 137.394531 53.175781 C 137.988281 53.175781 138.476562 52.65625 138.476562 52.023438 Z M 142.503906 52.023438 C 142.113281 51.390625 141.5625 50.871094 141.285156 50.871094 C 141.003906 50.871094 140.777344 51.390625 140.777344 52.023438 C 140.777344 52.660156 141.324219 53.175781 141.996094 53.175781 C 142.664062 53.175781 142.894531 52.65625 142.503906 52.023438 Z M 105.113281 46.222656 C 103.65625 45.246094 103.875 44.632812 106.550781 42.261719 C 108.292969 40.71875 109.714844 38.8125 109.714844 38.027344 C 109.714844 37.242188 108.980469 37.605469 108.085938 38.835938 C 107.1875 40.066406 106.066406 40.683594 105.59375 40.207031 C 105.117188 39.734375 105.335938 39.34375 106.074219 39.34375 C 106.8125 39.34375 107.414062 38.566406 107.414062 37.617188 C 107.414062 35.378906 105.238281 35.375 104.382812 37.609375 C 104.019531 38.558594 103.25 39.039062 102.675781 38.683594 C 102.097656 38.324219 101.921875 37.550781 102.289062 36.960938 C 102.652344 36.371094 102.433594 35.886719 101.800781 35.886719 C 101.167969 35.886719 100.324219 36.414062 99.925781 37.058594 C 99.527344 37.703125 98.667969 37.898438 98.011719 37.492188 C 97.242188 37.015625 97.371094 36.398438 98.378906 35.761719 C 99.648438 34.953125 99.617188 34.773438 98.210938 34.792969 C 96.027344 34.824219 90.207031 38.097656 92.242188 38.152344 C 93.070312 38.175781 93.457031 38.664062 93.101562 39.238281 C 92.746094 39.8125 93.621094 40.039062 95.046875 39.742188 L 97.636719 39.199219 L 94.984375 40.789062 L 92.335938 42.375 L 95.53125 43.835938 C 97.835938 44.886719 98.84375 44.933594 99.15625 44 C 99.464844 43.066406 100.050781 43.09375 101.253906 44.09375 C 102.597656 45.210938 102.632812 45.664062 101.429688 46.429688 C 100.457031 47.046875 101.140625 47.378906 103.390625 47.378906 C 106.078125 47.378906 106.457031 47.121094 105.113281 46.222656 Z M 100.753906 42.105469 C 99.113281 40.324219 100.222656 39.984375 102.648438 41.523438 C 103.507812 42.070312 103.765625 42.785156 103.222656 43.113281 C 102.683594 43.445312 101.570312 42.992188 100.753906 42.105469 Z M 145.914062 41.824219 C 145.265625 41.140625 143.078125 42.871094 143.078125 44.070312 C 143.078125 44.691406 143.800781 44.53125 144.6875 43.714844 C 145.574219 42.894531 146.125 42.046875 145.914062 41.824219 Z M 113.167969 43.503906 C 113.167969 43.253906 112.363281 42.742188 111.382812 42.363281 C 110.359375 41.96875 109.898438 42.164062 110.300781 42.816406 C 110.976562 43.910156 113.167969 44.4375 113.167969 43.503906 Z M 95.664062 31.808594 C 96.660156 30.941406 96.089844 30.632812 93.605469 30.691406 C 91.714844 30.738281 89.261719 31.777344 88.152344 33.003906 C 86.175781 35.1875 86.183594 35.191406 88.609375 33.179688 C 91.179688 31.042969 93.28125 32.230469 91.867188 35.023438 C 91.46875 35.816406 91.847656 35.6875 92.714844 34.734375 C 93.582031 33.785156 94.910156 32.464844 95.664062 31.808594 Z M 105.113281 33.515625 C 105.113281 32.84375 104.597656 32.613281 103.964844 33.007812 C 103.332031 33.398438 102.8125 33.945312 102.8125 34.226562 C 102.8125 34.507812 103.332031 34.734375 103.964844 34.734375 C 104.597656 34.734375 105.113281 34.1875 105.113281 33.515625 Z M 99.054688 24.714844 C 97.933594 24.421875 96.382812 24.441406 95.601562 24.757812 C 94.824219 25.074219 95.738281 25.3125 97.636719 25.289062 C 99.535156 25.265625 100.171875 25.007812 99.054688 24.714844 Z M 108.023438 23.429688 C 107.667969 23.078125 106.738281 23.429688 105.957031 24.21875 C 104.832031 25.355469 104.964844 25.488281 106.601562 24.863281 C 107.738281 24.429688 108.375 23.785156 108.019531 23.429688 Z M 121.222656 21.988281 C 121.222656 21.390625 120.789062 20.902344 120.261719 20.902344 C 119.734375 20.902344 119.304688 21.660156 119.304688 22.582031 C 119.304688 23.503906 119.734375 23.992188 120.261719 23.667969 C 120.789062 23.339844 121.222656 22.585938 121.222656 21.988281 Z M 116.605469 19.726562 C 115.921875 18.445312 115.746094 16.761719 116.210938 15.980469 C 116.746094 15.089844 116.328125 15.160156 115.085938 16.167969 C 113.234375 17.675781 113.230469 17.910156 115.042969 19.914062 C 117.5625 22.703125 118.160156 22.632812 116.605469 19.726562 Z M 110.769531 20.488281 C 110.507812 20.261719 108.738281 19.726562 106.839844 19.300781 C 104.320312 18.738281 103.855469 18.84375 105.113281 19.699219 C 106.667969 20.75 111.925781 21.488281 110.769531 20.488281 Z M 100.511719 17.339844 C 102.046875 16.253906 102.046875 16.171875 100.511719 16.625 C 99.5625 16.90625 97.753906 16.601562 96.488281 15.949219 C 94.429688 14.886719 94.355469 14.964844 95.765625 16.679688 C 97.605469 18.914062 98.179688 18.992188 100.511719 17.339844 Z M 106.265625 15.753906 C 106.265625 14.679688 105.597656 14.316406 104.445312 14.761719 C 102.976562 15.324219 102.921875 15.652344 104.15625 16.433594 C 106.199219 17.734375 106.265625 17.710938 106.265625 15.753906 Z M 136.636719 15.140625 C 141.15625 15.140625 136.53125 12.613281 131.542969 12.359375 C 128.539062 12.203125 126.136719 11.367188 125.261719 10.167969 C 123.210938 7.359375 122.371094 7.765625 122.371094 11.574219 C 122.371094 14.320312 122.773438 14.820312 124.601562 14.339844 C 125.828125 14.019531 128.003906 14.582031 129.441406 15.589844 C 131.167969 16.800781 132.441406 17.035156 133.195312 16.28125 C 133.824219 15.652344 135.371094 15.140625 136.636719 15.140625 Z M 110.867188 15.140625 C 110.867188 14.507812 110.320312 13.988281 109.648438 13.988281 C 108.980469 13.988281 108.75 14.507812 109.140625 15.140625 C 109.53125 15.773438 110.082031 16.292969 110.359375 16.292969 C 110.640625 16.292969 110.867188 15.773438 110.867188 15.140625 Z M 142.144531 3.980469 C 141.3125 3.644531 140.320312 3.6875 139.9375 4.070312 C 139.558594 4.453125 140.238281 4.726562 141.449219 4.675781 C 142.789062 4.621094 143.0625 4.347656 142.144531 3.980469 Z M 172.636719 256.457031 C 171.410156 255.226562 172.980469 253.738281 175.5 253.738281 C 177.476562 253.738281 177.636719 254.023438 176.441406 255.464844 C 174.894531 257.332031 173.796875 257.617188 172.636719 256.457031 Z M 49.324219 228.417969 C 46.160156 224.722656 43.363281 221.898438 43.105469 222.144531 C 42.851562 222.386719 41.414062 220.917969 39.914062 218.878906 C 37.125 215.089844 33.246094 212.355469 30.558594 212.28125 C 29.730469 212.257812 29.363281 212.738281 29.738281 213.347656 C 30.144531 214.007812 29.027344 213.96875 26.964844 213.246094 C 24.269531 212.304688 22.714844 210.355469 19.886719 204.359375 C 14.058594 192.011719 13.992188 191.707031 16.660156 190.273438 C 18.003906 189.554688 18.746094 188.308594 18.386719 187.371094 C 18.042969 186.46875 18.261719 185.730469 18.871094 185.730469 C 19.484375 185.730469 19.988281 184.921875 19.988281 183.929688 C 19.988281 182.722656 20.84375 182.246094 22.574219 182.488281 C 24.371094 182.738281 25.167969 182.257812 25.179688 180.914062 C 25.1875 179.847656 25.574219 178.59375 26.042969 178.128906 C 26.507812 177.660156 26.890625 177.84375 26.890625 178.53125 C 26.890625 179.222656 28.441406 180.125 30.339844 180.542969 C 32.238281 180.960938 33.792969 181.957031 33.792969 182.757812 C 33.792969 183.554688 35.214844 184.921875 36.957031 185.796875 C 38.695312 186.671875 40.40625 187.542969 40.753906 187.730469 C 41.101562 187.921875 41.175781 186.25 40.914062 184.023438 C 40.335938 179.054688 42.503906 178.566406 43.570312 183.425781 C 43.988281 185.328125 44.765625 186.882812 45.296875 186.882812 C 45.832031 186.882812 46.902344 188.828125 47.675781 191.207031 C 48.453125 193.582031 50.175781 196.648438 51.503906 198.011719 C 54.972656 201.574219 56.800781 203.953125 56.800781 204.898438 C 56.800781 205.351562 57.617188 206.625 58.613281 207.726562 C 61.035156 210.410156 61.609375 219.050781 59.558594 221.980469 C 58.675781 223.246094 57.949219 225.191406 57.949219 226.308594 C 57.949219 227.519531 56.769531 228.632812 55.015625 229.074219 C 52.117188 229.800781 52.113281 229.828125 54.441406 231.464844 C 56.746094 233.082031 57.65625 235.371094 55.9375 235.214844 C 55.460938 235.171875 52.484375 232.113281 49.324219 228.417969 Z M 58.347656 210.464844 C 57.972656 209.484375 57.417969 208.929688 57.117188 209.234375 C 56.816406 209.535156 56.910156 210.335938 57.328125 211.011719 C 58.460938 212.851562 59.125 212.492188 58.347656 210.464844 Z M 68.945312 233.09375 C 68.257812 231.984375 77.082031 227.238281 79.882812 227.207031 C 81.265625 227.195312 81.253906 227.007812 79.808594 226.074219 C 78.449219 225.191406 78.417969 224.953125 79.664062 224.9375 C 80.804688 224.925781 81.054688 223.960938 80.554688 221.460938 C 80.167969 219.511719 80.355469 218.003906 80.988281 218.003906 C 81.605469 218.003906 82.109375 218.523438 82.109375 219.15625 C 82.109375 219.792969 83.191406 221.394531 84.515625 222.722656 L 86.921875 225.132812 L 84.226562 227.035156 C 82.746094 228.082031 81.273438 228.941406 80.957031 228.949219 C 80.640625 228.953125 78.75 230.125 76.753906 231.550781 C 72.9375 234.273438 70.027344 234.851562 68.945312 233.09375 Z M 80.039062 205.09375 C 79.277344 204.335938 78.65625 203.296875 78.65625 202.789062 C 78.65625 201.09375 80.390625 201.84375 81.839844 204.171875 C 83.414062 206.699219 82.238281 207.300781 80.039062 205.09375 Z M 260.992188 203.886719 C 261.453125 202.457031 262.304688 195.585938 262.878906 188.613281 C 263.5 181.105469 264.660156 174.617188 265.726562 172.703125 C 267.238281 169.984375 267.308594 168.578125 266.164062 163.804688 C 265.410156 160.652344 265.15625 156.074219 265.589844 153.492188 C 266.296875 149.300781 266.140625 148.847656 263.972656 148.847656 C 262.605469 148.847656 261.570312 148.101562 261.570312 147.117188 C 261.570312 144.941406 259.359375 144.957031 256.453125 147.160156 C 255.222656 148.09375 253.300781 148.566406 252.183594 148.210938 C 251.066406 147.855469 249.152344 148.101562 247.933594 148.757812 C 245.046875 150.304688 240.09375 146.582031 237.835938 141.167969 C 236.953125 139.054688 235.59375 137.457031 234.808594 137.613281 C 233.792969 137.816406 233.386719 135.707031 233.386719 130.226562 C 233.386719 126.007812 233.792969 122.808594 234.289062 123.117188 C 234.789062 123.425781 235.085938 121.949219 234.953125 119.835938 C 234.820312 117.726562 235.703125 114.183594 236.914062 111.960938 C 238.121094 109.742188 239.117188 107.152344 239.125 106.199219 C 239.132812 105.25 239.65625 104.542969 240.289062 104.632812 C 241.871094 104.855469 248.050781 100.335938 247.253906 99.539062 C 246.898438 99.183594 247.46875 97.945312 248.515625 96.785156 C 249.566406 95.625 250.019531 94.671875 249.527344 94.671875 C 249.035156 94.671875 249.34375 93.765625 250.214844 92.65625 C 251.644531 90.828125 251.605469 90.789062 249.777344 92.222656 C 248.671875 93.089844 247.703125 93.480469 247.621094 93.085938 C 247.542969 92.691406 247.402344 91.71875 247.308594 90.925781 C 247.214844 90.132812 246.171875 89.65625 244.988281 89.863281 C 243.078125 90.195312 242.929688 89.738281 243.675781 85.828125 C 244.140625 83.402344 244.472656 80.199219 244.421875 78.710938 C 244.265625 74.488281 245.320312 73.792969 248.980469 75.6875 C 252.132812 77.320312 252.367188 77.296875 252.367188 75.332031 C 252.367188 74.171875 251.074219 71.464844 249.492188 69.316406 C 246.070312 64.667969 246.054688 64.601562 248.628906 65.410156 C 250.449219 65.984375 250.46875 65.898438 248.800781 64.511719 C 246.808594 62.847656 246.683594 62.53125 246.480469 58.652344 C 246.382812 56.703125 246.21875 56.558594 245.824219 58.078125 C 245.535156 59.1875 244.617188 60.09375 243.789062 60.09375 C 241.675781 60.09375 240.65625 55.492188 242.605469 54.742188 C 243.464844 54.410156 243.886719 53.398438 243.539062 52.492188 C 243.082031 51.296875 243.46875 51.0625 244.960938 51.636719 C 246.570312 52.253906 246.851562 51.996094 246.253906 50.4375 C 245.773438 49.183594 245.941406 48.726562 246.707031 49.199219 C 247.375 49.613281 247.632812 50.714844 247.277344 51.644531 C 246.917969 52.574219 247.90625 55.625 249.46875 58.429688 C 251.027344 61.230469 252.046875 64.4375 251.726562 65.554688 C 251.398438 66.710938 251.71875 66.5 252.472656 65.070312 C 253.570312 62.988281 253.355469 61.832031 251.226562 58.382812 C 249.8125 56.085938 248.878906 53.984375 249.152344 53.710938 C 249.828125 53.03125 256.539062 62.679688 257.5 65.71875 C 257.925781 67.0625 258.652344 68.164062 259.113281 68.164062 C 260.875 68.164062 273.074219 95.375 273.074219 99.304688 C 273.074219 100.3125 272.238281 99.972656 270.730469 98.347656 C 268.621094 96.082031 266.171875 95 266.171875 96.335938 C 266.171875 97.128906 270.949219 105.046875 271.425781 105.046875 C 271.660156 105.046875 271.527344 104.195312 271.128906 103.15625 C 270.535156 101.605469 270.785156 101.480469 272.519531 102.453125 C 273.683594 103.105469 274.734375 104.601562 274.859375 105.78125 C 274.984375 106.960938 275.414062 109.484375 275.816406 111.386719 C 276.21875 113.289062 277.304688 120.152344 278.230469 126.636719 C 280.050781 139.382812 279.15625 155.824219 275.847656 170.40625 C 274.957031 174.339844 274.222656 179.269531 274.21875 181.355469 C 274.207031 187.714844 271.964844 194.003906 269.476562 194.65625 C 268.230469 194.980469 265.933594 197.777344 264.371094 200.863281 C 261.421875 206.699219 259.535156 208.386719 260.992188 203.882812 Z M 268.683594 93.273438 C 267.859375 92.445312 267.324219 92.375 267.324219 93.097656 C 267.324219 94.636719 268.683594 96 269.449219 95.230469 C 269.777344 94.902344 269.433594 94.023438 268.683594 93.273438 Z M 265.652344 93.234375 C 264.691406 88.839844 260.753906 82.015625 259.175781 82.007812 C 257.070312 81.992188 254.160156 86.808594 254.910156 89.058594 C 255.1875 89.902344 256.414062 90.640625 257.632812 90.707031 C 263.609375 91.019531 265.011719 91.285156 264.886719 92.082031 C 264.675781 93.414062 264.96875 94.671875 265.496094 94.671875 C 265.753906 94.671875 265.824219 94.027344 265.652344 93.234375 Z M 103.964844 198.894531 C 103.964844 197.890625 104.578125 197.273438 105.332031 197.523438 C 107.464844 198.238281 107.816406 200.71875 105.785156 200.71875 C 104.785156 200.71875 103.964844 199.898438 103.964844 198.894531 Z M 108.003906 197.277344 C 107.605469 196.632812 108.085938 196.109375 109.074219 196.109375 C 111.09375 196.109375 111.390625 196.800781 109.796875 197.789062 C 109.207031 198.152344 108.398438 197.921875 108.003906 197.277344 Z M 83.925781 194.214844 C 82.964844 191.699219 84.242188 190.53125 85.601562 192.683594 C 86.960938 194.839844 86.992188 196.109375 85.679688 196.109375 C 85.117188 196.109375 84.328125 195.253906 83.925781 194.214844 Z M 74.054688 182.3125 C 74.054688 181.699219 73.277344 181.492188 72.328125 181.859375 C 70.230469 182.664062 70.042969 180.71875 72.054688 179.046875 C 73.128906 178.152344 73.847656 178.5625 74.820312 180.632812 C 75.546875 182.171875 75.667969 183.429688 75.09375 183.429688 C 74.523438 183.429688 74.054688 182.925781 74.054688 182.3125 Z M 51.597656 180.828125 C 50.34375 180.136719 48.644531 178.625 47.816406 177.464844 C 46.214844 175.222656 42.992188 174.585938 42.992188 176.511719 C 42.992188 177.148438 41.957031 177.664062 40.691406 177.664062 C 39.425781 177.664062 38.390625 177.148438 38.390625 176.511719 C 38.390625 175.878906 37.355469 175.359375 36.089844 175.359375 C 34.824219 175.359375 33.789062 174.839844 33.789062 174.207031 C 33.789062 173.574219 34.3125 173.054688 34.949219 173.054688 C 37.222656 173.054688 33.363281 168.667969 29.449219 166.796875 C 26.832031 165.546875 25.734375 164.351562 26.164062 163.222656 C 26.550781 162.214844 26.144531 161.527344 25.160156 161.527344 C 24.164062 161.527344 23.769531 162.214844 24.167969 163.257812 C 24.652344 164.515625 24.035156 164.984375 21.902344 164.984375 C 20.289062 164.984375 18.648438 164.46875 18.257812 163.832031 C 17.867188 163.199219 18.613281 162.679688 19.917969 162.679688 C 21.21875 162.679688 22.351562 162.160156 22.429688 161.527344 C 22.507812 160.894531 22.636719 159.898438 22.714844 159.320312 C 22.949219 157.605469 24.585938 156.402344 24.585938 157.945312 C 24.585938 158.722656 25.046875 159.074219 25.605469 158.726562 C 26.167969 158.378906 27.265625 158.867188 28.046875 159.8125 C 28.828125 160.753906 29.042969 161.527344 28.523438 161.527344 C 28.003906 161.527344 28.175781 162.128906 28.910156 162.863281 C 29.917969 163.871094 30.648438 163.855469 31.925781 162.796875 C 33.273438 161.671875 34.71875 161.960938 39.234375 164.253906 C 42.328125 165.824219 45.539062 167.929688 46.367188 168.929688 C 47.199219 169.929688 49.300781 170.75 51.046875 170.75 C 54.246094 170.75 57.414062 168.296875 56.019531 166.898438 C 55.605469 166.480469 55.835938 166.136719 56.539062 166.136719 C 58.992188 166.136719 59.195312 168.433594 56.957031 170.84375 C 55.441406 172.472656 53.9375 173.03125 52.390625 172.539062 C 48.367188 171.261719 48.125 174.355469 51.976562 177.804688 C 55.742188 181.175781 55.511719 182.992188 51.59375 180.828125 Z M 65.292969 177.453125 C 64.757812 176.585938 65.089844 176.359375 66.246094 176.804688 C 67.222656 177.179688 68.542969 176.960938 69.179688 176.320312 C 69.960938 175.539062 70.59375 175.570312 71.113281 176.410156 C 71.539062 177.101562 71.726562 177.703125 71.53125 177.75 C 67.882812 178.628906 65.964844 178.539062 65.292969 177.453125 Z M 13.503906 174.03125 C 12.957031 173.144531 11.101562 171.527344 9.382812 170.433594 C 4.984375 167.632812 3.339844 164.289062 5.878906 163.3125 C 6.953125 162.898438 7.460938 162.933594 7.003906 163.390625 C 5.839844 164.558594 9.679688 168.550781 11.113281 167.664062 C 11.773438 167.253906 11.9375 167.5 11.488281 168.230469 C 11.003906 169.015625 11.839844 169.820312 13.609375 170.265625 C 16.761719 171.054688 17.042969 171.617188 15.5 174.058594 C 14.65625 175.390625 14.34375 175.386719 13.503906 174.03125 Z M 17.234375 173.71875 C 17.578125 172.816406 18.65625 171.773438 19.625 171.402344 C 20.890625 170.914062 21.191406 171.242188 20.6875 172.558594 C 20.300781 173.570312 19.984375 174.613281 19.984375 174.878906 C 19.984375 175.144531 19.222656 175.359375 18.292969 175.359375 C 17.304688 175.359375 16.867188 174.679688 17.234375 173.71875 Z M 61.398438 173.054688 C 59.847656 170.148438 61.144531 170.148438 64.851562 173.054688 C 67.695312 175.285156 67.699219 175.308594 65.179688 175.335938 C 63.777344 175.347656 62.078125 174.324219 61.398438 173.054688 Z M 24.585938 172.546875 C 24.585938 172.265625 25.101562 171.71875 25.734375 171.324219 C 26.367188 170.933594 26.886719 171.164062 26.886719 171.832031 C 26.886719 172.503906 26.367188 173.054688 25.734375 173.054688 C 25.101562 173.054688 24.585938 172.824219 24.585938 172.546875 Z M 28.707031 170.902344 C 28.210938 170.101562 28.117188 169.132812 28.496094 168.75 C 29.527344 167.71875 30.648438 169.238281 30.09375 170.910156 C 29.703125 172.078125 29.433594 172.078125 28.707031 170.902344 Z M 12.714844 166.539062 C 12.285156 166.109375 11.871094 163.378906 11.796875 160.472656 C 11.679688 156.023438 11.542969 155.722656 10.933594 158.582031 C 10.53125 160.445312 9.816406 161.875 9.34375 161.75 C 8.867188 161.628906 8.019531 161.527344 7.457031 161.527344 C 5.121094 161.527344 4.992188 153.652344 7.238281 148.109375 C 9.445312 142.65625 9.753906 142.742188 10.210938 148.964844 C 10.539062 153.390625 11.871094 154.894531 14.941406 154.304688 C 16.746094 153.960938 17.683594 154.316406 17.683594 155.347656 C 17.683594 156.210938 16.519531 156.949219 15.09375 156.992188 L 12.507812 157.0625 L 15.09375 158.105469 C 16.519531 158.679688 17.675781 159.8125 17.664062 160.625 C 17.652344 161.765625 17.421875 161.746094 16.660156 160.539062 C 16.113281 159.679688 15.378906 159.445312 15.027344 160.019531 C 14.671875 160.59375 14.859375 161.816406 15.441406 162.734375 C 16.023438 163.65625 16.464844 165.1875 16.425781 166.140625 C 16.367188 167.492188 16.214844 167.527344 15.726562 166.296875 C 15.289062 165.191406 14.867188 165.109375 14.300781 166.027344 C 13.859375 166.742188 13.148438 166.972656 12.714844 166.539062 Z M 127.167969 162.679688 C 127.746094 160.941406 129.59375 160.761719 130.136719 162.394531 C 130.402344 163.183594 129.753906 163.832031 128.699219 163.832031 C 127.644531 163.832031 126.957031 163.316406 127.167969 162.679688 Z M 30.429688 161.046875 C 30.382812 159.832031 30.652344 159.152344 31.035156 159.535156 C 31.417969 159.917969 31.457031 160.914062 31.125 161.746094 C 30.757812 162.664062 30.488281 162.390625 30.429688 161.046875 Z M 2.078125 154.324219 C 0.761719 143.523438 0.742188 143.03125 1.625 142.484375 C 2.070312 142.207031 2.796875 145.210938 3.230469 149.160156 C 3.667969 153.109375 4.304688 157.507812 4.652344 158.933594 C 5 160.363281 4.757812 161.527344 4.121094 161.527344 C 3.480469 161.527344 2.5625 158.285156 2.078125 154.324219 Z M 19.902344 161.238281 C 19.035156 158.324219 19.054688 155.1875 19.945312 153.65625 C 20.804688 152.1875 21.078125 152.886719 21.101562 156.628906 C 21.121094 159.324219 20.878906 161.527344 20.5625 161.527344 C 20.246094 161.527344 19.949219 161.398438 19.902344 161.238281 Z M 71.757812 151.707031 C 71.757812 150.742188 70.460938 149.363281 68.878906 148.640625 C 66.378906 147.496094 64.894531 145.390625 66.59375 145.390625 C 67.65625 145.390625 72.308594 148.246094 73.175781 149.425781 C 74.402344 151.097656 74.246094 153.460938 72.90625 153.460938 C 72.273438 153.460938 71.757812 152.671875 71.757812 151.707031 Z M 14.234375 144.238281 C 13.402344 142.675781 13.386719 141.933594 14.195312 141.933594 C 14.851562 141.933594 15.386719 141.125 15.386719 140.136719 C 15.386719 139.148438 15.902344 138.660156 16.535156 139.050781 C 18.011719 139.964844 18.046875 146.542969 16.578125 146.542969 C 15.964844 146.542969 14.914062 145.507812 14.234375 144.238281 Z M 8.5 140.5625 C 8.511719 139.730469 9.019531 138.273438 9.632812 137.324219 C 10.539062 135.917969 10.753906 136.066406 10.765625 138.121094 C 10.777344 139.507812 10.265625 140.964844 9.632812 141.359375 C 9 141.75 8.492188 141.390625 8.5 140.5625 Z M 1.433594 137.035156 C 0.976562 125.535156 5.046875 99.167969 7.40625 98.324219 C 8 98.113281 8.484375 96.777344 8.484375 95.355469 C 8.484375 92.230469 13.835938 78.574219 15.898438 76.433594 C 17.121094 75.164062 17.496094 75.222656 18.09375 76.78125 C 18.550781 77.976562 18.355469 78.375 17.550781 77.878906 C 16.714844 77.363281 16.542969 77.894531 17.039062 79.457031 C 17.539062 81.039062 17.035156 82.515625 15.511719 83.9375 C 13.089844 86.199219 10.785156 91.296875 10.785156 94.394531 C 10.785156 95.960938 11.0625 95.902344 12.472656 94.03125 C 13.402344 92.800781 14.179688 90.367188 14.199219 88.625 C 14.21875 86.882812 14.753906 85.453125 15.386719 85.453125 C 17.464844 85.453125 16.589844 93.355469 13.949219 98.386719 C 11.730469 102.613281 11.308594 102.949219 10.992188 100.726562 C 10.789062 99.300781 10.203125 98.132812 9.6875 98.132812 C 7.445312 98.132812 6.339844 112.367188 8.484375 113.695312 C 10.398438 114.878906 9.890625 119.226562 7.925781 118.472656 C 5.390625 117.496094 4.210938 120.832031 4.113281 129.253906 C 3.980469 140.636719 3.964844 140.78125 2.730469 140.78125 C 2.097656 140.78125 1.515625 139.09375 1.433594 137.035156 Z M 12.195312 136.851562 C 12.550781 135 12.265625 134.253906 11.335938 134.609375 C 9.515625 135.3125 7.929688 125.890625 9.589844 124.226562 C 10.414062 123.402344 10.785156 124.0625 10.785156 126.367188 C 10.785156 128.410156 11.96875 130.945312 13.835938 132.894531 C 16.382812 135.5625 16.644531 136.378906 15.421875 137.859375 C 13.226562 140.503906 11.597656 139.996094 12.195312 136.851562 Z M 147.453125 117.496094 C 148.527344 116.421875 149.140625 116.421875 150.214844 117.496094 C 151.289062 118.574219 150.984375 118.878906 148.835938 118.878906 C 146.6875 118.878906 146.382812 118.574219 147.453125 117.496094 Z M 154.585938 117.664062 C 154.585938 116.929688 155.320312 116.609375 156.21875 116.957031 C 157.113281 117.300781 158.144531 116.804688 158.511719 115.851562 C 158.910156 114.804688 159.742188 114.480469 160.617188 115.027344 C 161.414062 115.523438 163.179688 115.785156 164.542969 115.605469 C 165.90625 115.429688 167.359375 115.835938 167.773438 116.507812 C 168.195312 117.1875 167.609375 117.757812 166.445312 117.800781 C 165.300781 117.839844 162.164062 118.125 159.476562 118.433594 C 156.21875 118.808594 154.585938 118.550781 154.585938 117.664062 Z M 170.464844 117.496094 C 171.535156 116.421875 172.152344 116.421875 173.222656 117.496094 C 174.296875 118.574219 173.992188 118.878906 171.84375 118.878906 C 169.695312 118.878906 169.390625 118.574219 170.464844 117.496094 Z M 143.917969 111.292969 C 142.164062 110.339844 140.144531 109.921875 139.425781 110.363281 C 138.632812 110.855469 138.445312 110.652344 138.949219 109.839844 C 139.46875 108.992188 138.878906 108.507812 137.332031 108.507812 C 135.992188 108.507812 135.144531 108.914062 135.453125 109.414062 C 135.761719 109.910156 135.015625 110.320312 133.796875 110.320312 C 130.734375 110.320312 131.019531 108.714844 134.347656 107.195312 C 136.582031 106.175781 138.46875 106.457031 144.125 108.652344 C 151.015625 111.332031 153.089844 113.164062 149.125 113.070312 C 148.015625 113.046875 145.675781 112.246094 143.917969 111.292969 Z M 246.621094 95.894531 C 246.621094 95.226562 247.140625 94.675781 247.773438 94.675781 C 248.40625 94.675781 248.921875 94.90625 248.921875 95.183594 C 248.921875 95.464844 248.40625 96.011719 247.773438 96.40625 C 247.140625 96.796875 246.621094 96.566406 246.621094 95.894531 Z M 248.921875 74.574219 C 248.921875 74.292969 249.441406 73.742188 250.074219 73.351562 C 250.707031 72.960938 251.222656 73.1875 251.222656 73.859375 C 251.222656 74.53125 250.707031 75.082031 250.074219 75.082031 C 249.441406 75.082031 248.921875 74.851562 248.921875 74.574219 Z M 21.140625 68.878906 C 21.140625 67.925781 21.660156 66.828125 22.292969 66.4375 C 22.925781 66.042969 23.441406 66.503906 23.441406 67.453125 C 23.441406 68.402344 22.925781 69.503906 22.292969 69.894531 C 21.660156 70.285156 21.140625 69.828125 21.140625 68.878906 Z M 25.742188 68.808594 C 25.742188 68.53125 26.261719 67.980469 26.894531 67.589844 C 27.527344 67.195312 28.042969 67.425781 28.042969 68.097656 C 28.042969 68.769531 27.527344 69.316406 26.894531 69.316406 C 26.261719 69.316406 25.742188 69.089844 25.742188 68.808594 Z M 32.644531 62.46875 C 32.644531 61.796875 33.164062 61.25 33.796875 61.25 C 34.429688 61.25 34.945312 61.476562 34.945312 61.757812 C 34.945312 62.039062 34.429688 62.585938 33.796875 62.976562 C 33.164062 63.371094 32.644531 63.140625 32.644531 62.46875 Z M 34.34375 51.984375 C 33.957031 51.355469 33.027344 51.207031 32.277344 51.65625 C 31.503906 52.121094 31.601562 51.632812 32.5 50.519531 C 34.140625 48.492188 37.84375 47.890625 38.832031 49.492188 C 39.144531 50 38.421875 51.027344 37.226562 51.773438 C 35.824219 52.652344 34.804688 52.726562 34.34375 51.984375 Z M 186.445312 35.761719 C 185.296875 35.09375 183.589844 34.84375 182.644531 35.207031 C 181.675781 35.578125 181.234375 35.367188 181.632812 34.726562 C 182.019531 34.097656 181.699219 33.585938 180.925781 33.585938 C 178.375 33.585938 180.976562 32.058594 184.097656 31.726562 C 187.679688 31.34375 194.085938 34.34375 193.097656 35.941406 C 192.210938 37.378906 189.070312 37.292969 186.445312 35.761719 Z M 186.445312 35.761719 " clip-rule="nonzero"/></clipPath><radialGradient gradientTransform="matrix(1.002062, 0, 0, 0.997938, -243.437755, -132.39399)" gradientUnits="userSpaceOnUse" r="322.535729" cx="284.258446" id="id5" cy="190.868282" fx="284.258446" fy="190.868282"><stop stop-opacity="1" stop-color="rgb(79.432678%, 42.268372%, 90.206909%)" offset="0"/><stop stop-opacity="1" stop-color="rgb(79.182434%, 42.073059%, 90.21759%)" offset="0.0078125"/><stop stop-opacity="1" stop-color="rgb(79.014587%, 41.941833%, 90.22522%)" offset="0.0117188"/><stop stop-opacity="1" stop-color="rgb(78.848267%, 41.812134%, 90.234375%)" offset="0.015625"/><stop stop-opacity="1" stop-color="rgb(78.681946%, 41.680908%, 90.242004%)" offset="0.0195312"/><stop stop-opacity="1" stop-color="rgb(78.514099%, 41.551208%, 90.249634%)" offset="0.0234375"/><stop stop-opacity="1" stop-color="rgb(78.347778%, 41.419983%, 90.257263%)" offset="0.0273438"/><stop stop-opacity="1" stop-color="rgb(78.181458%, 41.290283%, 90.264893%)" offset="0.03125"/><stop stop-opacity="1" stop-color="rgb(78.013611%, 41.159058%, 90.272522%)" offset="0.0351562"/><stop stop-opacity="1" stop-color="rgb(77.84729%, 41.029358%, 90.280151%)" offset="0.0390625"/><stop stop-opacity="1" stop-color="rgb(77.680969%, 40.898132%, 90.287781%)" offset="0.0429688"/><stop stop-opacity="1" stop-color="rgb(77.513123%, 40.768433%, 90.296936%)" offset="0.046875"/><stop stop-opacity="1" stop-color="rgb(77.346802%, 40.637207%, 90.304565%)" offset="0.0507812"/><stop stop-opacity="1" stop-color="rgb(77.180481%, 40.507507%, 90.312195%)" offset="0.0546875"/><stop stop-opacity="1" stop-color="rgb(77.012634%, 40.376282%, 90.319824%)" offset="0.0585938"/><stop stop-opacity="1" stop-color="rgb(76.846313%, 40.246582%, 90.327454%)" offset="0.0625"/><stop stop-opacity="1" stop-color="rgb(76.679993%, 40.115356%, 90.335083%)" offset="0.0664062"/><stop stop-opacity="1" stop-color="rgb(76.513672%, 39.985657%, 90.342712%)" offset="0.0703125"/><stop stop-opacity="1" stop-color="rgb(76.345825%, 39.854431%, 90.350342%)" offset="0.0742188"/><stop stop-opacity="1" stop-color="rgb(76.179504%, 39.724731%, 90.357971%)" offset="0.078125"/><stop stop-opacity="1" stop-color="rgb(76.013184%, 39.593506%, 90.367126%)" offset="0.0820312"/><stop stop-opacity="1" stop-color="rgb(75.845337%, 39.463806%, 90.374756%)" offset="0.0859375"/><stop stop-opacity="1" stop-color="rgb(75.679016%, 39.332581%, 90.382385%)" offset="0.0898438"/><stop stop-opacity="1" stop-color="rgb(75.512695%, 39.202881%, 90.390015%)" offset="0.09375"/><stop stop-opacity="1" stop-color="rgb(75.344849%, 39.071655%, 90.397644%)" offset="0.0976562"/><stop stop-opacity="1" stop-color="rgb(75.178528%, 38.941956%, 90.405273%)" offset="0.101562"/><stop stop-opacity="1" stop-color="rgb(75.012207%, 38.81073%, 90.412903%)" offset="0.105469"/><stop stop-opacity="1" stop-color="rgb(74.84436%, 38.68103%, 90.420532%)" offset="0.109375"/><stop stop-opacity="1" stop-color="rgb(74.67804%, 38.549805%, 90.429688%)" offset="0.113281"/><stop stop-opacity="1" stop-color="rgb(74.511719%, 38.420105%, 90.437317%)" offset="0.117188"/><stop stop-opacity="1" stop-color="rgb(74.343872%, 38.288879%, 90.444946%)" offset="0.121094"/><stop stop-opacity="1" stop-color="rgb(74.177551%, 38.15918%, 90.452576%)" offset="0.125"/><stop stop-opacity="1" stop-color="rgb(74.01123%, 38.027954%, 90.460205%)" offset="0.128906"/><stop stop-opacity="1" stop-color="rgb(73.84491%, 37.898254%, 90.467834%)" offset="0.132812"/><stop stop-opacity="1" stop-color="rgb(73.677063%, 37.767029%, 90.475464%)" offset="0.136719"/><stop stop-opacity="1" stop-color="rgb(73.510742%, 37.637329%, 90.483093%)" offset="0.140625"/><stop stop-opacity="1" stop-color="rgb(73.344421%, 37.506104%, 90.492249%)" offset="0.144531"/><stop stop-opacity="1" stop-color="rgb(73.176575%, 37.376404%, 90.499878%)" offset="0.148438"/><stop stop-opacity="1" stop-color="rgb(73.010254%, 37.245178%, 90.507507%)" offset="0.152344"/><stop stop-opacity="1" stop-color="rgb(72.843933%, 37.115479%, 90.515137%)" offset="0.15625"/><stop stop-opacity="1" stop-color="rgb(72.676086%, 36.984253%, 90.522766%)" offset="0.160156"/><stop stop-opacity="1" stop-color="rgb(72.509766%, 36.854553%, 90.530396%)" offset="0.164062"/><stop stop-opacity="1" stop-color="rgb(72.343445%, 36.723328%, 90.538025%)" offset="0.167969"/><stop stop-opacity="1" stop-color="rgb(72.175598%, 36.593628%, 90.545654%)" offset="0.171875"/><stop stop-opacity="1" stop-color="rgb(72.009277%, 36.462402%, 90.553284%)" offset="0.175781"/><stop stop-opacity="1" stop-color="rgb(71.842957%, 36.332703%, 90.562439%)" offset="0.179688"/><stop stop-opacity="1" stop-color="rgb(71.67511%, 36.201477%, 90.570068%)" offset="0.183594"/><stop stop-opacity="1" stop-color="rgb(71.508789%, 36.071777%, 90.577698%)" offset="0.1875"/><stop stop-opacity="1" stop-color="rgb(71.342468%, 35.940552%, 90.585327%)" offset="0.191406"/><stop stop-opacity="1" stop-color="rgb(71.176147%, 35.810852%, 90.592957%)" offset="0.195312"/><stop stop-opacity="1" stop-color="rgb(71.008301%, 35.679626%, 90.600586%)" offset="0.199219"/><stop stop-opacity="1" stop-color="rgb(70.84198%, 35.549927%, 90.608215%)" offset="0.203125"/><stop stop-opacity="1" stop-color="rgb(70.675659%, 35.418701%, 90.615845%)" offset="0.207031"/><stop stop-opacity="1" stop-color="rgb(70.507812%, 35.289001%, 90.625%)" offset="0.210938"/><stop stop-opacity="1" stop-color="rgb(70.341492%, 35.157776%, 90.632629%)" offset="0.214844"/><stop stop-opacity="1" stop-color="rgb(70.175171%, 35.028076%, 90.640259%)" offset="0.21875"/><stop stop-opacity="1" stop-color="rgb(70.007324%, 34.896851%, 90.647888%)" offset="0.222656"/><stop stop-opacity="1" stop-color="rgb(69.841003%, 34.767151%, 90.655518%)" offset="0.226562"/><stop stop-opacity="1" stop-color="rgb(69.674683%, 34.635925%, 90.663147%)" offset="0.230469"/><stop stop-opacity="1" stop-color="rgb(69.506836%, 34.506226%, 90.670776%)" offset="0.234375"/><stop stop-opacity="1" stop-color="rgb(69.340515%, 34.375%, 90.678406%)" offset="0.238281"/><stop stop-opacity="1" stop-color="rgb(69.174194%, 34.2453%, 90.687561%)" offset="0.242188"/><stop stop-opacity="1" stop-color="rgb(69.007874%, 34.114075%, 90.69519%)" offset="0.246094"/><stop stop-opacity="1" stop-color="rgb(68.840027%, 33.984375%, 90.70282%)" offset="0.25"/><stop stop-opacity="1" stop-color="rgb(68.589783%, 33.787537%, 90.715027%)" offset="0.253906"/><stop stop-opacity="1" stop-color="rgb(68.257141%, 33.526611%, 90.730286%)" offset="0.261719"/><stop stop-opacity="1" stop-color="rgb(67.922974%, 33.265686%, 90.745544%)" offset="0.269531"/><stop stop-opacity="1" stop-color="rgb(67.588806%, 33.004761%, 90.760803%)" offset="0.277344"/><stop stop-opacity="1" stop-color="rgb(67.256165%, 32.743835%, 90.777588%)" offset="0.285156"/><stop stop-opacity="1" stop-color="rgb(66.921997%, 32.48291%, 90.792847%)" offset="0.292969"/><stop stop-opacity="1" stop-color="rgb(66.589355%, 32.221985%, 90.808105%)" offset="0.300781"/><stop stop-opacity="1" stop-color="rgb(66.255188%, 31.96106%, 90.823364%)" offset="0.308594"/><stop stop-opacity="1" stop-color="rgb(65.921021%, 31.700134%, 90.840149%)" offset="0.316406"/><stop stop-opacity="1" stop-color="rgb(65.588379%, 31.439209%, 90.855408%)" offset="0.324219"/><stop stop-opacity="1" stop-color="rgb(65.254211%, 31.178284%, 90.870667%)" offset="0.332031"/><stop stop-opacity="1" stop-color="rgb(64.920044%, 30.917358%, 90.885925%)" offset="0.339844"/><stop stop-opacity="1" stop-color="rgb(64.587402%, 30.656433%, 90.90271%)" offset="0.347656"/><stop stop-opacity="1" stop-color="rgb(64.253235%, 30.395508%, 90.917969%)" offset="0.355469"/><stop stop-opacity="1" stop-color="rgb(63.920593%, 30.134583%, 90.933228%)" offset="0.363281"/><stop stop-opacity="1" stop-color="rgb(63.586426%, 29.873657%, 90.948486%)" offset="0.371094"/><stop stop-opacity="1" stop-color="rgb(63.252258%, 29.612732%, 90.965271%)" offset="0.378906"/><stop stop-opacity="1" stop-color="rgb(62.919617%, 29.351807%, 90.98053%)" offset="0.386719"/><stop stop-opacity="1" stop-color="rgb(62.585449%, 29.090881%, 90.995789%)" offset="0.394531"/><stop stop-opacity="1" stop-color="rgb(62.251282%, 28.829956%, 91.011047%)" offset="0.402344"/><stop stop-opacity="1" stop-color="rgb(61.91864%, 28.569031%, 91.027832%)" offset="0.410156"/><stop stop-opacity="1" stop-color="rgb(61.584473%, 28.308105%, 91.043091%)" offset="0.417969"/><stop stop-opacity="1" stop-color="rgb(61.251831%, 28.04718%, 91.05835%)" offset="0.425781"/><stop stop-opacity="1" stop-color="rgb(60.917664%, 27.786255%, 91.073608%)" offset="0.433594"/><stop stop-opacity="1" stop-color="rgb(60.583496%, 27.52533%, 91.090393%)" offset="0.441406"/><stop stop-opacity="1" stop-color="rgb(60.250854%, 27.264404%, 91.105652%)" offset="0.449219"/><stop stop-opacity="1" stop-color="rgb(59.916687%, 27.003479%, 91.120911%)" offset="0.457031"/><stop stop-opacity="1" stop-color="rgb(59.58252%, 26.742554%, 91.136169%)" offset="0.464844"/><stop stop-opacity="1" stop-color="rgb(59.249878%, 26.481628%, 91.151428%)" offset="0.472656"/><stop stop-opacity="1" stop-color="rgb(58.91571%, 26.220703%, 91.168213%)" offset="0.480469"/><stop stop-opacity="1" stop-color="rgb(58.583069%, 25.959778%, 91.183472%)" offset="0.488281"/><stop stop-opacity="1" stop-color="rgb(58.248901%, 25.698853%, 91.19873%)" offset="0.496094"/><stop stop-opacity="1" stop-color="rgb(57.998657%, 25.50354%, 91.210938%)" offset="0.503906"/><stop stop-opacity="1" stop-color="rgb(57.832336%, 25.372314%, 91.218567%)" offset="0.507812"/><stop stop-opacity="1" stop-color="rgb(57.66449%, 25.242615%, 91.226196%)" offset="0.511719"/><stop stop-opacity="1" stop-color="rgb(57.498169%, 25.111389%, 91.233826%)" offset="0.515625"/><stop stop-opacity="1" stop-color="rgb(57.331848%, 24.981689%, 91.241455%)" offset="0.519531"/><stop stop-opacity="1" stop-color="rgb(57.164001%, 24.850464%, 91.249084%)" offset="0.523438"/><stop stop-opacity="1" stop-color="rgb(56.997681%, 24.720764%, 91.256714%)" offset="0.527344"/><stop stop-opacity="1" stop-color="rgb(56.83136%, 24.589539%, 91.264343%)" offset="0.53125"/><stop stop-opacity="1" stop-color="rgb(56.663513%, 24.459839%, 91.273499%)" offset="0.535156"/><stop stop-opacity="1" stop-color="rgb(56.497192%, 24.328613%, 91.281128%)" offset="0.539062"/><stop stop-opacity="1" stop-color="rgb(56.330872%, 24.198914%, 91.288757%)" offset="0.542969"/><stop stop-opacity="1" stop-color="rgb(56.163025%, 24.067688%, 91.296387%)" offset="0.546875"/><stop stop-opacity="1" stop-color="rgb(55.996704%, 23.937988%, 91.304016%)" offset="0.550781"/><stop stop-opacity="1" stop-color="rgb(55.830383%, 23.806763%, 91.311646%)" offset="0.554688"/><stop stop-opacity="1" stop-color="rgb(55.664062%, 23.677063%, 91.319275%)" offset="0.558594"/><stop stop-opacity="1" stop-color="rgb(55.496216%, 23.545837%, 91.326904%)" offset="0.5625"/><stop stop-opacity="1" stop-color="rgb(55.329895%, 23.416138%, 91.334534%)" offset="0.566406"/><stop stop-opacity="1" stop-color="rgb(55.163574%, 23.284912%, 91.343689%)" offset="0.570312"/><stop stop-opacity="1" stop-color="rgb(54.995728%, 23.155212%, 91.351318%)" offset="0.574219"/><stop stop-opacity="1" stop-color="rgb(54.829407%, 23.023987%, 91.358948%)" offset="0.578125"/><stop stop-opacity="1" stop-color="rgb(54.663086%, 22.894287%, 91.366577%)" offset="0.582031"/><stop stop-opacity="1" stop-color="rgb(54.495239%, 22.763062%, 91.374207%)" offset="0.585938"/><stop stop-opacity="1" stop-color="rgb(54.328918%, 22.633362%, 91.381836%)" offset="0.589844"/><stop stop-opacity="1" stop-color="rgb(54.162598%, 22.502136%, 91.389465%)" offset="0.59375"/><stop stop-opacity="1" stop-color="rgb(53.994751%, 22.372437%, 91.397095%)" offset="0.597656"/><stop stop-opacity="1" stop-color="rgb(53.82843%, 22.241211%, 91.40625%)" offset="0.601562"/><stop stop-opacity="1" stop-color="rgb(53.662109%, 22.111511%, 91.413879%)" offset="0.605469"/><stop stop-opacity="1" stop-color="rgb(53.494263%, 21.980286%, 91.421509%)" offset="0.609375"/><stop stop-opacity="1" stop-color="rgb(53.327942%, 21.850586%, 91.429138%)" offset="0.613281"/><stop stop-opacity="1" stop-color="rgb(53.161621%, 21.71936%, 91.436768%)" offset="0.617188"/><stop stop-opacity="1" stop-color="rgb(52.9953%, 21.589661%, 91.444397%)" offset="0.621094"/><stop stop-opacity="1" stop-color="rgb(52.827454%, 21.458435%, 91.452026%)" offset="0.625"/><stop stop-opacity="1" stop-color="rgb(52.577209%, 21.263123%, 91.464233%)" offset="0.628906"/><stop stop-opacity="1" stop-color="rgb(52.244568%, 21.002197%, 91.481018%)" offset="0.636719"/><stop stop-opacity="1" stop-color="rgb(51.9104%, 20.741272%, 91.496277%)" offset="0.644531"/><stop stop-opacity="1" stop-color="rgb(51.576233%, 20.480347%, 91.511536%)" offset="0.652344"/><stop stop-opacity="1" stop-color="rgb(51.243591%, 20.219421%, 91.526794%)" offset="0.660156"/><stop stop-opacity="1" stop-color="rgb(50.909424%, 19.958496%, 91.542053%)" offset="0.667969"/><stop stop-opacity="1" stop-color="rgb(50.576782%, 19.697571%, 91.558838%)" offset="0.675781"/><stop stop-opacity="1" stop-color="rgb(50.242615%, 19.436646%, 91.574097%)" offset="0.683594"/><stop stop-opacity="1" stop-color="rgb(49.908447%, 19.17572%, 91.589355%)" offset="0.691406"/><stop stop-opacity="1" stop-color="rgb(49.575806%, 18.914795%, 91.604614%)" offset="0.699219"/><stop stop-opacity="1" stop-color="rgb(49.241638%, 18.65387%, 91.621399%)" offset="0.707031"/><stop stop-opacity="1" stop-color="rgb(48.907471%, 18.392944%, 91.636658%)" offset="0.714844"/><stop stop-opacity="1" stop-color="rgb(48.574829%, 18.132019%, 91.651917%)" offset="0.722656"/><stop stop-opacity="1" stop-color="rgb(48.240662%, 17.871094%, 91.667175%)" offset="0.730469"/><stop stop-opacity="1" stop-color="rgb(47.90802%, 17.610168%, 91.68396%)" offset="0.738281"/><stop stop-opacity="1" stop-color="rgb(47.573853%, 17.349243%, 91.699219%)" offset="0.746094"/><stop stop-opacity="1" stop-color="rgb(47.323608%, 17.152405%, 91.7099%)" offset="0.753906"/><stop stop-opacity="1" stop-color="rgb(47.157288%, 17.022705%, 91.717529%)" offset="0.757812"/><stop stop-opacity="1" stop-color="rgb(46.989441%, 16.891479%, 91.725159%)" offset="0.761719"/><stop stop-opacity="1" stop-color="rgb(46.82312%, 16.76178%, 91.734314%)" offset="0.765625"/><stop stop-opacity="1" stop-color="rgb(46.656799%, 16.630554%, 91.741943%)" offset="0.769531"/><stop stop-opacity="1" stop-color="rgb(46.488953%, 16.500854%, 91.749573%)" offset="0.773438"/><stop stop-opacity="1" stop-color="rgb(46.322632%, 16.369629%, 91.757202%)" offset="0.777344"/><stop stop-opacity="1" stop-color="rgb(46.156311%, 16.239929%, 91.764832%)" offset="0.78125"/><stop stop-opacity="1" stop-color="rgb(45.988464%, 16.108704%, 91.772461%)" offset="0.785156"/><stop stop-opacity="1" stop-color="rgb(45.822144%, 15.979004%, 91.78009%)" offset="0.789062"/><stop stop-opacity="1" stop-color="rgb(45.655823%, 15.847778%, 91.78772%)" offset="0.792969"/><stop stop-opacity="1" stop-color="rgb(45.489502%, 15.718079%, 91.796875%)" offset="0.796875"/><stop stop-opacity="1" stop-color="rgb(45.321655%, 15.586853%, 91.804504%)" offset="0.800781"/><stop stop-opacity="1" stop-color="rgb(45.155334%, 15.457153%, 91.812134%)" offset="0.804688"/><stop stop-opacity="1" stop-color="rgb(44.989014%, 15.325928%, 91.819763%)" offset="0.808594"/><stop stop-opacity="1" stop-color="rgb(44.821167%, 15.196228%, 91.827393%)" offset="0.8125"/><stop stop-opacity="1" stop-color="rgb(44.570923%, 14.99939%, 91.8396%)" offset="0.816406"/><stop stop-opacity="1" stop-color="rgb(44.238281%, 14.738464%, 91.854858%)" offset="0.824219"/><stop stop-opacity="1" stop-color="rgb(43.904114%, 14.477539%, 91.871643%)" offset="0.832031"/><stop stop-opacity="1" stop-color="rgb(43.569946%, 14.216614%, 91.886902%)" offset="0.839844"/><stop stop-opacity="1" stop-color="rgb(43.237305%, 13.955688%, 91.902161%)" offset="0.847656"/><stop stop-opacity="1" stop-color="rgb(42.903137%, 13.694763%, 91.917419%)" offset="0.855469"/><stop stop-opacity="1" stop-color="rgb(42.570496%, 13.433838%, 91.932678%)" offset="0.863281"/><stop stop-opacity="1" stop-color="rgb(42.236328%, 13.172913%, 91.949463%)" offset="0.871094"/><stop stop-opacity="1" stop-color="rgb(41.986084%, 12.9776%, 91.960144%)" offset="0.878906"/><stop stop-opacity="1" stop-color="rgb(41.819763%, 12.8479%, 91.967773%)" offset="0.882812"/><stop stop-opacity="1" stop-color="rgb(41.651917%, 12.716675%, 91.975403%)" offset="0.886719"/><stop stop-opacity="1" stop-color="rgb(41.485596%, 12.586975%, 91.983032%)" offset="0.890625"/><stop stop-opacity="1" stop-color="rgb(41.319275%, 12.45575%, 91.992188%)" offset="0.894531"/><stop stop-opacity="1" stop-color="rgb(41.151428%, 12.32605%, 91.999817%)" offset="0.898438"/><stop stop-opacity="1" stop-color="rgb(40.985107%, 12.194824%, 92.007446%)" offset="0.902344"/><stop stop-opacity="1" stop-color="rgb(40.818787%, 12.065125%, 92.015076%)" offset="0.90625"/><stop stop-opacity="1" stop-color="rgb(40.568542%, 11.868286%, 92.027283%)" offset="0.910156"/><stop stop-opacity="1" stop-color="rgb(40.234375%, 11.607361%, 92.042542%)" offset="0.917969"/><stop stop-opacity="1" stop-color="rgb(39.901733%, 11.346436%, 92.0578%)" offset="0.925781"/><stop stop-opacity="1" stop-color="rgb(39.567566%, 11.08551%, 92.074585%)" offset="0.933594"/><stop stop-opacity="1" stop-color="rgb(39.317322%, 10.890198%, 92.085266%)" offset="0.941406"/><stop stop-opacity="1" stop-color="rgb(39.151001%, 10.760498%, 92.092896%)" offset="0.945312"/><stop stop-opacity="1" stop-color="rgb(38.983154%, 10.629272%, 92.100525%)" offset="0.949219"/><stop stop-opacity="1" stop-color="rgb(38.816833%, 10.499573%, 92.108154%)" offset="0.953125"/><stop stop-opacity="1" stop-color="rgb(38.566589%, 10.302734%, 92.120361%)" offset="0.957031"/><stop stop-opacity="1" stop-color="rgb(38.232422%, 10.041809%, 92.137146%)" offset="0.964844"/><stop stop-opacity="1" stop-color="rgb(37.982178%, 9.846497%, 92.147827%)" offset="0.972656"/><stop stop-opacity="1" stop-color="rgb(37.815857%, 9.716797%, 92.155457%)" offset="0.976562"/><stop stop-opacity="1" stop-color="rgb(37.565613%, 9.519958%, 92.167664%)" offset="0.980469"/><stop stop-opacity="1" stop-color="rgb(37.315369%, 9.324646%, 92.178345%)" offset="0.988281"/><stop stop-opacity="1" stop-color="rgb(37.065125%, 9.129333%, 92.190552%)" offset="0.992188"/><stop stop-opacity="1" stop-color="rgb(36.898804%, 8.999634%, 92.199707%)" offset="1"/></radialGradient><clipPath id="id6"><rect x="0" width="280" y="0" height="279"/></clipPath><mask id="id7"><g filter="url(#id1)"><rect x="-37.5" width="450" fill="#000000" y="-37.499999" height="449.999989" fill-opacity="0.2"/></g></mask><clipPath id="id8"><path d="M 0.5 1.101562 L 300 1.101562 L 300 198 L 0.5 198 Z M 0.5 1.101562 " clip-rule="nonzero"/></clipPath><clipPath id="id9"><rect x="0" width="301" y="0" height="199"/></clipPath><mask id="id10"><g filter="url(#id1)"><rect x="-37.5" width="450" fill="#000000" y="-37.499999" height="449.999989" fill-opacity="0.2"/></g></mask><clipPath id="id11"><path d="M 1 1 L 300.5 1 L 300.5 197.960938 L 1 197.960938 Z M 1 1 " clip-rule="nonzero"/></clipPath><clipPath id="id12"><rect x="0" width="301" y="0" height="198"/></clipPath></defs><g mask="url(#id2)"><g transform="matrix(1, 0, 0, 1, 47, 58)"><g clip-path="url(#id6)"><g clip-path="url(#id3)"><g clip-path="url(#id4)"><path fill="url(#id5)" d="M 0.742188 0.875 L 0.742188 278.480469 L 279.640625 278.480469 L 279.640625 0.875 Z M 0.742188 0.875 " fill-rule="nonzero"/></g></g></g></g></g><g mask="url(#id7)"><g transform="matrix(1, 0, 0, 1, 37, 140)"><g clip-path="url(#id9)"><g clip-path="url(#id8)"><path fill="#cccccc" d="M 195.742188 189.015625 C 254.160156 168.589844 297.078125 114.085938 299.675781 48.449219 C 300.328125 31.96875 298.378906 15.984375 294.214844 0.894531 L 293.722656 1.0625 C 297.832031 15.929688 299.707031 31.699219 298.980469 47.96875 C 298.820312 51.511719 298.535156 55.015625 298.136719 58.492188 C 286.164062 56.5625 273.976562 55.328125 261.621094 54.792969 C 260.492188 41.03125 257.921875 27.515625 254.128906 14.523438 L 253.773438 14.644531 C 257.554688 27.578125 260.066406 41.042969 261.113281 54.769531 C 250.976562 54.347656 240.726562 54.402344 230.390625 54.964844 C 223.476562 55.34375 216.636719 55.945312 209.859375 56.753906 C 207.871094 48.386719 205.582031 40.082031 203.023438 31.90625 L 202.816406 31.976562 C 205.375 40.136719 207.65625 48.433594 209.628906 56.789062 C 188.3125 59.347656 167.695312 64.007812 147.976562 70.550781 L 137.589844 41.027344 L 147.488281 70.71875 C 128.246094 77.132812 109.855469 85.335938 92.511719 95.125 C 89.261719 87.832031 86.207031 80.300781 83.382812 72.59375 L 83.179688 72.664062 C 86.007812 80.382812 89.066406 87.925781 92.304688 95.242188 C 78.339844 103.136719 65.050781 112.054688 52.535156 121.898438 C 46.074219 111.570312 40.480469 100.4375 35.933594 88.730469 L 35.550781 88.863281 C 40.121094 100.621094 45.703125 111.8125 52.140625 122.214844 C 43.667969 128.898438 35.546875 136.003906 27.816406 143.496094 C 16.671875 130.835938 7.632812 116.339844 1.226562 100.535156 L 0.71875 100.707031 C 22.953125 155.476562 75.589844 195.050781 138.445312 197.535156 C 154.261719 198.164062 169.613281 196.394531 184.160156 192.558594 C 185.40625 192.261719 186.640625 191.941406 187.867188 191.589844 C 188.8125 191.363281 189.746094 191.078125 190.652344 190.75 C 190.726562 190.722656 190.796875 190.6875 190.867188 190.660156 C 191.515625 190.449219 192.167969 190.242188 192.808594 190.015625 C 192.9375 189.972656 193.058594 189.917969 193.1875 189.871094 C 194.039062 189.589844 194.898438 189.3125 195.742188 189.019531 Z M 190.578125 188.058594 C 190.207031 188.179688 189.835938 188.292969 189.464844 188.410156 L 183.195312 170.617188 C 192.441406 167.636719 201.757812 165.332031 211.09375 163.671875 C 206.449219 176.09375 199.46875 184.523438 190.578125 188.058594 Z M 186.996094 189.15625 C 186.769531 189.222656 186.539062 189.277344 186.3125 189.34375 C 179.886719 190.699219 172.613281 189.746094 164.613281 186.167969 C 161.777344 184.898438 158.925781 183.324219 156.070312 181.488281 C 163.738281 177.78125 171.699219 174.496094 179.953125 171.6875 C 180.320312 171.566406 180.683594 171.453125 181.050781 171.332031 Z M 201.21875 183.757812 C 205.996094 178.871094 209.867188 172.003906 212.707031 163.398438 C 218.632812 162.394531 224.574219 161.648438 230.496094 161.15625 C 222.070312 170.738281 212.203125 178.394531 201.21875 183.757812 Z M 175.289062 191.707031 C 166.789062 192.914062 157.886719 192.914062 148.679688 191.585938 C 145.839844 191.179688 143.023438 190.640625 140.226562 190 C 144.878906 187.234375 149.667969 184.628906 154.578125 182.207031 C 158.15625 184.710938 161.734375 186.789062 165.28125 188.410156 C 168.757812 189.996094 172.097656 191.085938 175.289062 191.707031 Z M 216.535156 177.191406 C 222.65625 172.566406 228.292969 167.121094 233.355469 160.929688 C 236.164062 160.734375 238.964844 160.605469 241.769531 160.523438 C 233.945312 166.851562 225.492188 172.445312 216.535156 177.191406 Z M 157.410156 194.710938 C 150.996094 195.285156 144.480469 195.484375 137.886719 195.257812 C 136.007812 195.191406 134.132812 195.085938 132.273438 194.957031 C 134.097656 193.761719 135.941406 192.585938 137.808594 191.445312 C 141.597656 192.457031 145.433594 193.265625 149.292969 193.847656 C 152.023438 194.257812 154.730469 194.53125 157.40625 194.710938 Z M 244.21875 158.5 C 241.152344 158.550781 238.074219 158.667969 234.996094 158.851562 C 240.761719 151.433594 245.742188 143.023438 249.808594 133.769531 C 255.511719 133.980469 261.183594 134.402344 266.808594 135.023438 C 260.117188 143.613281 252.542969 151.484375 244.21875 158.5 Z M 129.054688 194.699219 C 116.195312 193.53125 103.835938 190.820312 92.144531 186.75 C 96.300781 183.335938 100.582031 180.046875 104.984375 176.914062 C 114.613281 182.953125 124.746094 187.640625 135.207031 190.71875 C 133.128906 192.011719 131.078125 193.335938 129.054688 194.699219 Z M 232.328125 159.011719 C 232.324219 159.015625 232.316406 159.015625 232.3125 159.019531 C 226.007812 159.476562 219.691406 160.230469 213.371094 161.269531 C 215.667969 153.636719 217.195312 144.742188 217.882812 134.753906 C 228.0625 133.746094 238.191406 133.410156 248.210938 133.71875 C 243.839844 143.109375 238.503906 151.59375 232.328125 159.011719 Z M 137.460938 189.328125 C 126.628906 186.53125 116.132812 182.03125 106.175781 176.066406 C 114.269531 170.382812 122.769531 165.203125 131.628906 160.539062 C 138.5625 168.753906 145.664062 175.640625 152.769531 180.890625 C 147.519531 183.507812 142.410156 186.324219 137.460938 189.328125 Z M 211.851562 161.53125 C 202.058594 163.21875 192.277344 165.613281 182.554688 168.75 L 173.644531 143.4375 C 180.839844 141.296875 188.199219 139.46875 195.722656 138 C 202.851562 136.605469 209.980469 135.5625 217.078125 134.832031 C 216.21875 144.976562 214.4375 153.9375 211.851562 161.53125 Z M 154.15625 180.222656 C 146.824219 175.195312 139.488281 168.394531 132.328125 160.167969 C 144.835938 153.644531 158.0625 148.199219 171.933594 143.957031 L 180.4375 169.457031 C 180.078125 169.578125 179.714844 169.6875 179.355469 169.808594 C 170.625 172.777344 162.226562 176.273438 154.15625 180.222656 Z M 267.574219 134.035156 C 261.835938 133.429688 256.042969 133.039062 250.21875 132.855469 C 254.9375 121.894531 258.367188 109.769531 260.339844 96.722656 C 269.484375 97.214844 278.550781 98.175781 287.515625 99.578125 C 282.367188 111.96875 275.628906 123.523438 267.574219 134.035156 Z M 91.21875 186.425781 C 79.984375 182.429688 69.390625 177.175781 59.585938 170.847656 C 65.394531 165.292969 71.472656 159.988281 77.792969 154.953125 C 86.035156 163.277344 94.933594 170.53125 104.328125 176.496094 C 99.839844 179.667969 95.457031 182.972656 91.21875 186.425781 Z M 248.636719 132.8125 C 238.496094 132.554688 228.246094 132.9375 217.9375 134.007812 C 218.632812 123.160156 218.34375 111.050781 216.980469 97.882812 C 231.238281 96.347656 245.429688 95.964844 259.453125 96.671875 C 257.300781 109.757812 253.621094 121.882812 248.636719 132.8125 Z M 105.507812 175.667969 C 95.921875 169.851562 86.851562 162.6875 78.464844 154.417969 C 88.808594 146.222656 99.808594 138.738281 111.421875 132.074219 C 117.738281 142.476562 124.394531 151.910156 131.222656 160.054688 C 122.269531 164.738281 113.695312 169.964844 105.507812 175.667969 Z M 217.128906 134.097656 C 210.246094 134.835938 203.332031 135.859375 196.410156 137.214844 C 188.582031 138.746094 180.929688 140.652344 173.441406 142.894531 L 161.769531 109.726562 C 167.882812 107.734375 174.101562 105.945312 180.4375 104.371094 C 192.472656 101.375 204.542969 99.246094 216.554688 97.933594 C 217.832031 111.15625 217.996094 123.289062 217.128906 134.097656 Z M 131.910156 159.699219 C 124.964844 151.660156 118.195312 142.273438 111.78125 131.875 C 127.058594 123.140625 143.382812 115.808594 160.632812 110.097656 L 171.746094 143.410156 C 157.8125 147.691406 144.5 153.164062 131.910156 159.699219 Z M 288.054688 98.21875 C 278.976562 96.863281 269.785156 95.949219 260.523438 95.515625 C 262.082031 84.675781 262.632812 73.207031 262.050781 61.242188 C 261.960938 59.414062 261.839844 57.59375 261.699219 55.773438 C 273.980469 56.375 286.101562 57.699219 298.007812 59.707031 C 296.367188 73.167969 292.960938 86.082031 288.054688 98.21875 Z M 58.726562 170.300781 C 47.675781 163.0625 37.65625 154.4375 28.898438 144.695312 C 36.511719 137.191406 44.519531 130.082031 52.875 123.382812 C 60.03125 134.769531 68.203125 145.199219 77.175781 154.355469 C 70.777344 159.40625 64.621094 164.730469 58.726562 170.300781 Z M 259.644531 95.484375 C 245.535156 94.875 231.246094 95.355469 216.886719 96.988281 C 216.21875 90.730469 215.3125 84.242188 214.148438 77.539062 C 212.992188 70.855469 211.613281 64.164062 210.046875 57.515625 C 216.417969 56.773438 222.855469 56.226562 229.347656 55.871094 C 240.0625 55.289062 250.675781 55.257812 261.175781 55.757812 C 261.292969 57.40625 261.40625 59.066406 261.480469 60.726562 C 262.019531 72.871094 261.363281 84.507812 259.644531 95.484375 Z M 77.84375 153.8125 C 68.757812 144.761719 60.484375 134.414062 53.269531 123.066406 C 65.683594 113.144531 78.867188 104.152344 92.742188 96.195312 C 98.363281 108.789062 104.527344 120.664062 111.070312 131.5 C 99.382812 138.167969 88.28125 145.625 77.84375 153.8125 Z M 216.480469 97.035156 C 204.742188 98.386719 192.96875 100.5 181.199219 103.429688 C 174.53125 105.089844 167.984375 106.992188 161.558594 109.101562 L 148.25 71.285156 C 167.921875 64.714844 188.511719 60.058594 209.816406 57.550781 C 211.320312 63.996094 212.632812 70.476562 213.742188 76.960938 C 214.925781 83.894531 215.832031 90.589844 216.476562 97.035156 Z M 111.433594 131.296875 C 104.824219 120.519531 98.597656 108.667969 92.945312 96.078125 C 110.21875 86.191406 128.539062 77.90625 147.742188 71.457031 L 160.421875 109.472656 C 143.148438 115.226562 126.773438 122.574219 111.429688 131.300781 Z M 111.433594 131.296875 " fill-opacity="1" fill-rule="nonzero"/></g></g></g></g><g mask="url(#id10)"><g transform="matrix(1, 0, 0, 1, 37, 54)"><g clip-path="url(#id12)"><g clip-path="url(#id11)"><path fill="#cccccc" d="M 105.257812 9.871094 C 46.839844 30.292969 3.921875 84.800781 1.324219 150.4375 C 0.671875 166.917969 2.621094 182.902344 6.785156 197.992188 L 7.277344 197.824219 C 3.167969 182.953125 1.292969 167.1875 2.019531 150.917969 C 2.179688 147.375 2.464844 143.867188 2.863281 140.394531 C 14.835938 142.324219 27.023438 143.558594 39.378906 144.089844 C 40.507812 157.855469 43.078125 171.371094 46.871094 184.359375 L 47.226562 184.238281 C 43.445312 171.304688 40.933594 157.84375 39.886719 144.117188 C 50.023438 144.535156 60.273438 144.484375 70.609375 143.917969 C 77.523438 143.542969 84.363281 142.941406 91.140625 142.128906 C 93.128906 150.496094 95.417969 158.804688 97.976562 166.980469 L 98.183594 166.910156 C 95.625 158.75 93.34375 150.453125 91.371094 142.097656 C 112.6875 139.535156 133.304688 134.875 153.023438 128.335938 L 163.410156 157.855469 L 153.511719 128.167969 C 172.753906 121.75 191.144531 113.550781 208.488281 103.761719 C 211.738281 111.054688 214.792969 118.585938 217.617188 126.292969 L 217.820312 126.222656 C 214.992188 118.503906 211.933594 110.957031 208.695312 103.644531 C 222.660156 95.75 235.949219 86.828125 248.464844 76.988281 C 254.925781 87.316406 260.519531 98.445312 265.066406 110.152344 L 265.449219 110.023438 C 260.878906 98.265625 255.296875 87.074219 248.859375 76.671875 C 257.332031 69.988281 265.453125 62.882812 273.183594 55.390625 C 284.328125 68.050781 293.367188 82.546875 299.773438 98.351562 L 300.28125 98.179688 C 278.046875 43.410156 225.410156 3.835938 162.554688 1.347656 C 146.738281 0.722656 131.386719 2.488281 116.839844 6.324219 C 115.59375 6.621094 114.359375 6.945312 113.132812 7.296875 C 112.1875 7.523438 111.253906 7.808594 110.347656 8.136719 C 110.273438 8.164062 110.203125 8.199219 110.132812 8.226562 C 109.484375 8.4375 108.832031 8.644531 108.191406 8.871094 C 108.0625 8.914062 107.941406 8.96875 107.8125 9.015625 C 106.960938 9.296875 106.101562 9.570312 105.257812 9.867188 Z M 110.421875 10.824219 C 110.792969 10.707031 111.164062 10.59375 111.535156 10.476562 L 117.804688 28.269531 C 108.558594 31.25 99.242188 33.554688 89.90625 35.210938 C 94.550781 22.789062 101.53125 14.363281 110.421875 10.824219 Z M 114.003906 9.726562 C 114.230469 9.664062 114.460938 9.605469 114.6875 9.542969 C 121.113281 8.1875 128.386719 9.140625 136.386719 12.71875 C 139.222656 13.988281 142.074219 15.558594 144.929688 17.398438 C 137.261719 21.101562 129.300781 24.390625 121.046875 27.195312 C 120.679688 27.320312 120.316406 27.433594 119.949219 27.554688 L 114.003906 9.730469 Z M 99.78125 15.128906 C 95.003906 20.015625 91.132812 26.882812 88.292969 35.484375 C 82.367188 36.492188 76.425781 37.234375 70.503906 37.726562 C 78.929688 28.148438 88.796875 20.492188 99.78125 15.128906 Z M 125.710938 7.179688 C 134.210938 5.972656 143.113281 5.972656 152.320312 7.296875 C 155.160156 7.707031 157.976562 8.242188 160.773438 8.886719 C 156.121094 11.652344 151.332031 14.257812 146.421875 16.675781 C 142.84375 14.175781 139.265625 12.097656 135.71875 10.476562 C 132.242188 8.890625 128.902344 7.796875 125.710938 7.179688 Z M 84.464844 21.695312 C 78.34375 26.320312 72.707031 31.765625 67.644531 37.953125 C 64.835938 38.148438 62.035156 38.28125 59.230469 38.363281 C 67.054688 32.035156 75.507812 26.441406 84.464844 21.691406 Z M 143.589844 4.175781 C 150.003906 3.601562 156.519531 3.398438 163.113281 3.628906 C 164.992188 3.691406 166.867188 3.796875 168.726562 3.929688 C 166.902344 5.125 165.058594 6.296875 163.191406 7.441406 C 159.402344 6.425781 155.566406 5.621094 151.707031 5.039062 C 148.976562 4.628906 146.269531 4.351562 143.59375 4.175781 Z M 56.78125 40.382812 C 59.847656 40.335938 62.925781 40.21875 66.003906 40.035156 C 60.238281 47.453125 55.257812 55.863281 51.191406 65.117188 C 45.488281 64.90625 39.816406 64.484375 34.191406 63.863281 C 40.882812 55.273438 48.457031 47.398438 56.78125 40.382812 Z M 171.945312 4.1875 C 184.804688 5.351562 197.164062 8.066406 208.855469 12.136719 C 204.699219 15.550781 200.417969 18.839844 196.015625 21.972656 C 186.386719 15.933594 176.253906 11.246094 165.792969 8.167969 C 167.871094 6.871094 169.921875 5.546875 171.945312 4.1875 Z M 68.671875 39.871094 C 68.675781 39.871094 68.683594 39.871094 68.6875 39.867188 C 74.988281 39.40625 81.308594 38.65625 87.628906 37.613281 C 85.332031 45.25 83.804688 54.144531 83.117188 64.128906 C 72.9375 65.136719 62.808594 65.472656 52.789062 65.167969 C 57.160156 55.773438 62.496094 47.289062 68.671875 39.871094 Z M 163.539062 9.558594 C 174.371094 12.351562 184.867188 16.855469 194.824219 22.816406 C 186.730469 28.503906 178.230469 33.683594 169.371094 38.34375 C 162.4375 30.132812 155.335938 23.246094 148.230469 17.992188 C 153.480469 15.375 158.589844 12.5625 163.539062 9.558594 Z M 89.148438 37.355469 C 98.941406 35.667969 108.722656 33.269531 118.445312 30.132812 L 127.355469 55.449219 C 120.160156 57.589844 112.800781 59.414062 105.277344 60.886719 C 98.148438 62.28125 91.019531 63.324219 83.921875 64.050781 C 84.78125 53.910156 86.5625 44.949219 89.148438 37.355469 Z M 146.84375 18.664062 C 154.175781 23.691406 161.511719 30.492188 168.671875 38.71875 C 156.164062 45.242188 142.9375 50.6875 129.066406 54.929688 L 120.5625 29.429688 C 120.921875 29.308594 121.285156 29.199219 121.644531 29.074219 C 130.375 26.105469 138.773438 22.613281 146.84375 18.664062 Z M 33.425781 64.851562 C 39.164062 65.457031 44.957031 65.847656 50.78125 66.03125 C 46.0625 76.992188 42.632812 89.113281 40.660156 102.160156 C 31.515625 101.667969 22.449219 100.707031 13.484375 99.308594 C 18.632812 86.917969 25.371094 75.363281 33.425781 64.851562 Z M 209.78125 12.460938 C 221.015625 16.457031 231.609375 21.710938 241.414062 28.039062 C 235.605469 33.59375 229.527344 38.894531 223.207031 43.933594 C 214.964844 35.609375 206.066406 28.355469 196.671875 22.386719 C 201.160156 19.21875 205.542969 15.914062 209.78125 12.460938 Z M 52.363281 66.074219 C 62.503906 66.328125 72.753906 65.949219 83.0625 64.878906 C 82.367188 75.722656 82.65625 87.835938 84.019531 101.003906 C 69.761719 102.539062 55.570312 102.921875 41.546875 102.210938 C 43.699219 89.128906 47.378906 77 52.363281 66.074219 Z M 195.492188 23.214844 C 205.078125 29.03125 214.148438 36.199219 222.535156 44.46875 C 212.191406 52.664062 201.191406 60.148438 189.578125 66.8125 C 183.261719 56.410156 176.605469 46.976562 169.777344 38.832031 C 178.730469 34.148438 187.304688 28.921875 195.492188 23.214844 Z M 83.871094 64.789062 C 90.753906 64.050781 97.667969 63.023438 104.589844 61.671875 C 112.417969 60.140625 120.070312 58.234375 127.558594 55.992188 L 139.230469 89.160156 C 133.117188 91.148438 126.898438 92.941406 120.5625 94.515625 C 108.527344 97.511719 96.457031 99.636719 84.445312 100.949219 C 83.167969 87.726562 83.003906 75.597656 83.871094 64.789062 Z M 169.089844 39.1875 C 176.035156 47.226562 182.804688 56.609375 189.21875 67.007812 C 173.941406 75.746094 157.617188 83.078125 140.367188 88.785156 L 129.253906 55.476562 C 143.1875 51.195312 156.5 45.722656 169.089844 39.1875 Z M 12.945312 100.667969 C 22.023438 102.019531 31.214844 102.9375 40.476562 103.367188 C 38.917969 114.210938 38.367188 125.679688 38.949219 137.644531 C 39.039062 139.472656 39.160156 141.292969 39.300781 143.113281 C 27.019531 142.511719 14.898438 141.183594 2.992188 139.179688 C 4.632812 125.71875 8.039062 112.804688 12.945312 100.667969 Z M 242.273438 28.585938 C 253.324219 35.824219 263.34375 44.449219 272.101562 54.191406 C 264.488281 61.695312 256.480469 68.804688 248.125 75.503906 C 240.96875 64.117188 232.796875 53.6875 223.824219 44.53125 C 230.222656 39.480469 236.378906 34.152344 242.273438 28.585938 Z M 41.355469 103.402344 C 55.464844 104.011719 69.753906 103.53125 84.113281 101.898438 C 84.78125 108.15625 85.6875 114.644531 86.851562 121.347656 C 88.007812 128.03125 89.386719 134.71875 90.953125 141.367188 C 84.582031 142.113281 78.144531 142.660156 71.652344 143.011719 C 60.9375 143.597656 50.324219 143.625 39.824219 143.128906 C 39.707031 141.476562 39.59375 139.820312 39.519531 138.160156 C 38.980469 126.011719 39.636719 114.378906 41.355469 103.402344 Z M 223.15625 45.074219 C 232.242188 54.125 240.515625 64.472656 247.730469 75.816406 C 235.316406 85.742188 222.132812 94.734375 208.257812 102.691406 C 202.636719 90.097656 196.472656 78.222656 189.929688 67.386719 C 201.617188 60.714844 212.71875 53.261719 223.15625 45.074219 Z M 84.519531 101.851562 C 96.257812 100.5 108.03125 98.386719 119.800781 95.457031 C 126.46875 93.796875 133.015625 91.890625 139.441406 89.78125 L 152.75 127.601562 C 133.078125 134.171875 112.488281 138.828125 91.183594 141.335938 C 89.679688 134.886719 88.367188 128.410156 87.257812 121.925781 C 86.074219 114.992188 85.167969 108.296875 84.523438 101.851562 Z M 189.566406 67.585938 C 196.175781 78.363281 202.402344 90.21875 208.054688 102.808594 C 190.78125 112.695312 172.460938 120.976562 153.257812 127.429688 L 140.578125 89.410156 C 157.851562 83.660156 174.226562 76.3125 189.570312 67.585938 Z M 189.566406 67.585938 " fill-opacity="1" fill-rule="nonzero"/></g></g></g></g><g fill="#ffffff" fill-opacity="1"><g transform="translate(105.228514, 184.507385)"><g><path d="M 25.3125 -5.0625 L 2.53125 -5.0625 L 2.53125 0 L 25.3125 0 C 28.703125 0 30.375 -1.722656 30.375 -5.0625 L 30.375 -17.71875 C 30.375 -21.109375 28.703125 -22.78125 25.3125 -22.78125 L 7.59375 -22.78125 L 7.59375 -30.375 L 2.53125 -30.375 L 2.53125 -22.78125 C 2.53125 -19.441406 4.253906 -17.71875 7.59375 -17.71875 L 25.3125 -17.71875 Z M 2.53125 -35.4375 L 30.375 -35.4375 L 30.375 -40.5 L 7.59375 -40.5 C 4.253906 -40.5 2.53125 -38.828125 2.53125 -35.4375 Z M 2.53125 -35.4375 "/></g></g></g><g fill="#ffffff" fill-opacity="1"><g transform="translate(138.134818, 184.507385)"><g><path d="M 25.3125 -22.78125 L 2.53125 -22.78125 L 2.53125 0 L 7.59375 0 L 7.59375 -17.71875 L 25.3125 -17.71875 C 28.703125 -17.71875 30.375 -19.441406 30.375 -22.78125 L 30.375 -35.4375 C 30.375 -38.828125 28.703125 -40.5 25.3125 -40.5 L 2.53125 -40.5 L 2.53125 -35.4375 L 25.3125 -35.4375 Z M 25.3125 -22.78125 "/></g></g></g><g fill="#ffffff" fill-opacity="1"><g transform="translate(171.041123, 184.507385)"><g><path d="M 2.53125 -35.4375 L 2.53125 0 L 7.59375 0 L 7.59375 -35.4375 L 25.3125 -35.4375 L 25.3125 0 L 30.375 0 L 30.375 -35.4375 C 30.375 -38.828125 28.703125 -40.5 25.3125 -40.5 L 7.59375 -40.5 C 4.253906 -40.5 2.53125 -38.828125 2.53125 -35.4375 Z M 12.65625 -10.125 L 20.25 -10.125 L 20.25 -15.1875 L 12.65625 -15.1875 Z M 12.65625 -10.125 "/></g></g></g><g fill="#ffffff" fill-opacity="1"><g transform="translate(203.947428, 184.507385)"><g><path d="M 7.59375 0 L 30.375 0 L 30.375 -5.0625 L 7.59375 -5.0625 L 7.59375 -35.4375 L 30.375 -35.4375 L 30.375 -40.5 L 7.59375 -40.5 C 4.253906 -40.5 2.53125 -38.828125 2.53125 -35.4375 L 2.53125 -5.0625 C 2.53125 -1.722656 4.253906 0 7.59375 0 Z M 7.59375 0 "/></g></g></g><g fill="#ffffff" fill-opacity="1"><g transform="translate(236.853733, 184.507385)"><g><path d="M 30.375 -40.5 L 2.53125 -40.5 L 2.53125 -35.4375 L 30.375 -35.4375 Z M 2.53125 0 L 30.375 0 L 30.375 -5.0625 L 2.53125 -5.0625 Z M 2.53125 -10.125 L 25.3125 -10.125 L 25.3125 -15.1875 L 2.53125 -15.1875 Z M 2.53125 -10.125 "/></g></g></g><g fill="#ffffff" fill-opacity="1"><g transform="translate(144.05273, 269.559577)"><g><path d="M 13.035156 0 L 73.867188 0 C 79.691406 0 82.558594 -2.953125 82.558594 -8.691406 L 82.558594 -69.523438 L 73.867188 -69.523438 L 73.867188 -8.691406 L 13.035156 -8.691406 L 13.035156 -69.523438 L 4.34375 -69.523438 L 4.34375 -8.691406 C 4.34375 -2.953125 7.300781 0 13.035156 0 Z M 39.105469 -17.378906 L 47.796875 -17.378906 L 47.796875 -69.523438 L 39.105469 -69.523438 Z M 39.105469 -17.378906 "/></g></g></g></svg>